<svg width="36" height="36" viewBox="0 0 36 36" fill="none" xmlns="http://www.w3.org/2000/svg">
<path d="M2.5 8.375C2.5 7.44674 2.84993 6.5565 3.47282 5.90013C4.09571 5.24375 4.94053 4.875 5.82143 4.875H30.1786C31.0595 4.875 31.9043 5.24375 32.5272 5.90013C33.1501 6.5565 33.5 7.44674 33.5 8.375V11.875H2.5V8.375Z" fill="#79DA5A"/>
<path fill-rule="evenodd" clip-rule="evenodd" d="M26.8571 1.875C27.1508 1.875 27.4324 1.99206 27.64 2.20044C27.8476 2.40881 27.9643 2.69143 27.9643 2.98611V7.43056C27.9643 7.72524 27.8476 8.00786 27.64 8.21623C27.4324 8.4246 27.1508 8.54167 26.8571 8.54167C26.5635 8.54167 26.2819 8.4246 26.0743 8.21623C25.8666 8.00786 25.75 7.72524 25.75 7.43056V2.98611C25.75 2.69143 25.8666 2.40881 26.0743 2.20044C26.2819 1.99206 26.5635 1.875 26.8571 1.875ZM9.14286 1.875C9.43649 1.875 9.7181 1.99206 9.92573 2.20044C10.1334 2.40881 10.25 2.69143 10.25 2.98611V7.43056C10.25 7.72524 10.1334 8.00786 9.92573 8.21623C9.7181 8.4246 9.43649 8.54167 9.14286 8.54167C8.84922 8.54167 8.56762 8.4246 8.35999 8.21623C8.15236 8.00786 8.03571 7.72524 8.03571 7.43056V2.98611C8.03571 2.69143 8.15236 2.40881 8.35999 2.20044C8.56762 1.99206 8.84922 1.875 9.14286 1.875ZM2.5 14.0972H33.5V28.5417C33.5 29.4257 33.1501 30.2736 32.5272 30.8987C31.9043 31.5238 31.0595 31.875 30.1786 31.875H5.82143C4.94053 31.875 4.09571 31.5238 3.47282 30.8987C2.84993 30.2736 2.5 29.4257 2.5 28.5417V14.0972ZM25.75 18.5417C25.75 18.247 25.8666 17.9644 26.0743 17.756C26.2819 17.5476 26.5635 17.4306 26.8571 17.4306H29.0714C29.3651 17.4306 29.6467 17.5476 29.8543 17.756C30.0619 17.9644 30.1786 18.247 30.1786 18.5417C30.1786 18.8364 30.0619 19.119 29.8543 19.3273C29.6467 19.5357 29.3651 19.6528 29.0714 19.6528H26.8571C26.5635 19.6528 26.2819 19.5357 26.0743 19.3273C25.8666 19.119 25.75 18.8364 25.75 18.5417ZM20.2143 17.4306C19.9207 17.4306 19.639 17.5476 19.4314 17.756C19.2238 17.9644 19.1071 18.247 19.1071 18.5417C19.1071 18.8364 19.2238 19.119 19.4314 19.3273C19.639 19.5357 19.9207 19.6528 20.2143 19.6528H22.4286C22.7222 19.6528 23.0038 19.5357 23.2114 19.3273C23.4191 19.119 23.5357 18.8364 23.5357 18.5417C23.5357 18.247 23.4191 17.9644 23.2114 17.756C23.0038 17.5476 22.7222 17.4306 22.4286 17.4306H20.2143ZM12.4643 18.5417C12.4643 18.247 12.5809 17.9644 12.7886 17.756C12.9962 17.5476 13.2778 17.4306 13.5714 17.4306H15.7857C16.0793 17.4306 16.361 17.5476 16.5686 17.756C16.7762 17.9644 16.8929 18.247 16.8929 18.5417C16.8929 18.8364 16.7762 19.119 16.5686 19.3273C16.361 19.5357 16.0793 19.6528 15.7857 19.6528H13.5714C13.2778 19.6528 12.9962 19.5357 12.7886 19.3273C12.5809 19.119 12.4643 18.8364 12.4643 18.5417ZM6.92857 21.875C6.63494 21.875 6.35333 21.9921 6.1457 22.2004C5.93807 22.4088 5.82143 22.6914 5.82143 22.9861C5.82143 23.2808 5.93807 23.5634 6.1457 23.7718C6.35333 23.9802 6.63494 24.0972 6.92857 24.0972H9.14286C9.43649 24.0972 9.7181 23.9802 9.92573 23.7718C10.1334 23.5634 10.25 23.2808 10.25 22.9861C10.25 22.6914 10.1334 22.4088 9.92573 22.2004C9.7181 21.9921 9.43649 21.875 9.14286 21.875H6.92857ZM25.75 22.9861C25.75 22.6914 25.8666 22.4088 26.0743 22.2004C26.2819 21.9921 26.5635 21.875 26.8571 21.875H29.0714C29.3651 21.875 29.6467 21.9921 29.8543 22.2004C30.0619 22.4088 30.1786 22.6914 30.1786 22.9861C30.1786 23.2808 30.0619 23.5634 29.8543 23.7718C29.6467 23.9802 29.3651 24.0972 29.0714 24.0972H26.8571C26.5635 24.0972 26.2819 23.9802 26.0743 23.7718C25.8666 23.5634 25.75 23.2808 25.75 22.9861ZM20.2143 21.875C19.9207 21.875 19.639 21.9921 19.4314 22.2004C19.2238 22.4088 19.1071 22.6914 19.1071 22.9861C19.1071 23.2808 19.2238 23.5634 19.4314 23.7718C19.639 23.9802 19.9207 24.0972 20.2143 24.0972H22.4286C22.7222 24.0972 23.0038 23.9802 23.2114 23.7718C23.4191 23.5634 23.5357 23.2808 23.5357 22.9861C23.5357 22.6914 23.4191 22.4088 23.2114 22.2004C23.0038 21.9921 22.7222 21.875 22.4286 21.875H20.2143ZM12.4643 22.9861C12.4643 22.6914 12.5809 22.4088 12.7886 22.2004C12.9962 21.9921 13.2778 21.875 13.5714 21.875H15.7857C16.0793 21.875 16.361 21.9921 16.5686 22.2004C16.7762 22.4088 16.8929 22.6914 16.8929 22.9861C16.8929 23.2808 16.7762 23.5634 16.5686 23.7718C16.361 23.9802 16.0793 24.0972 15.7857 24.0972H13.5714C13.2778 24.0972 12.9962 23.9802 12.7886 23.7718C12.5809 23.5634 12.4643 23.2808 12.4643 22.9861ZM6.92857 26.3194C6.63494 26.3194 6.35333 26.4365 6.1457 26.6449C5.93807 26.8533 5.82143 27.1359 5.82143 27.4306C5.82143 27.7252 5.93807 28.0079 6.1457 28.2162C6.35333 28.4246 6.63494 28.5417 6.92857 28.5417H9.14286C9.43649 28.5417 9.7181 28.4246 9.92573 28.2162C10.1334 28.0079 10.25 27.7252 10.25 27.4306C10.25 27.1359 10.1334 26.8533 9.92573 26.6449C9.7181 26.4365 9.43649 26.3194 9.14286 26.3194H6.92857ZM19.1071 27.4306C19.1071 27.1359 19.2238 26.8533 19.4314 26.6449C19.639 26.4365 19.9207 26.3194 20.2143 26.3194H22.4286C22.7222 26.3194 23.0038 26.4365 23.2114 26.6449C23.4191 26.8533 23.5357 27.1359 23.5357 27.4306C23.5357 27.7252 23.4191 28.0079 23.2114 28.2162C23.0038 28.4246 22.7222 28.5417 22.4286 28.5417H20.2143C19.9207 28.5417 19.639 28.4246 19.4314 28.2162C19.2238 28.0079 19.1071 27.7252 19.1071 27.4306ZM13.5714 26.3194C13.2778 26.3194 12.9962 26.4365 12.7886 26.6449C12.5809 26.8533 12.4643 27.1359 12.4643 27.4306C12.4643 27.7252 12.5809 28.0079 12.7886 28.2162C12.9962 28.4246 13.2778 28.5417 13.5714 28.5417H15.7857C16.0793 28.5417 16.361 28.4246 16.5686 28.2162C16.7762 28.0079 16.8929 27.7252 16.8929 27.4306C16.8929 27.1359 16.7762 26.8533 16.5686 26.6449C16.361 26.4365 16.0793 26.3194 15.7857 26.3194H13.5714Z" fill="#79DA5A"/>
</svg>
