<svg width="32" height="32" viewBox="0 0 32 32" fill="none" xmlns="http://www.w3.org/2000/svg">
<path d="M16.0003 18.6667C18.9417 18.6667 21.3337 16.2747 21.3337 13.3333C21.3337 10.392 18.9417 8 16.0003 8C13.059 8 10.667 10.392 10.667 13.3333C10.667 16.2747 13.059 18.6667 16.0003 18.6667ZM16.0003 10.6667C17.471 10.6667 18.667 11.8627 18.667 13.3333C18.667 14.804 17.471 16 16.0003 16C14.5297 16 13.3337 14.804 13.3337 13.3333C13.3337 11.8627 14.5297 10.6667 16.0003 10.6667Z" fill="black"/>
<path d="M15.2265 29.0854C15.4523 29.2461 15.7226 29.3325 15.9998 29.3325C16.277 29.3325 16.5473 29.2461 16.7731 29.0854C17.1785 28.7987 26.7051 21.92 26.6665 13.3334C26.6665 7.45202 21.8811 2.66669 15.9998 2.66669C10.1185 2.66669 5.33313 7.45202 5.33313 13.3267C5.29446 21.92 14.8211 28.7987 15.2265 29.0854ZM15.9998 5.33335C20.4118 5.33335 23.9998 8.92135 23.9998 13.34C24.0278 19.2574 18.1491 24.5707 15.9998 26.3134C13.8518 24.5694 7.97179 19.2547 7.99979 13.3334C7.99979 8.92135 11.5878 5.33335 15.9998 5.33335Z" fill="black"/>
</svg>
