<svg width="20" height="21" viewBox="0 0 20 21" fill="none" xmlns="http://www.w3.org/2000/svg">
<path d="M2.845 11.9817L1.66666 13.16L5.79083 14.9275L7.55916 19.0525L8.7375 17.8742L8.14833 14.9275L10.9092 12.1667L13.9175 18.5867L15.0333 17.4708L14.0417 9.03499L16.3983 6.67749C16.5575 6.52375 16.6845 6.33984 16.7718 6.1365C16.8592 5.93316 16.9052 5.71446 16.9071 5.49316C16.909 5.27186 16.8668 5.0524 16.783 4.84757C16.6992 4.64274 16.5755 4.45666 16.419 4.30017C16.2625 4.14368 16.0764 4.01992 15.8716 3.93612C15.6668 3.85232 15.4473 3.81015 15.226 3.81207C15.0047 3.814 14.786 3.85998 14.5827 3.94732C14.3793 4.03467 14.1954 4.16164 14.0417 4.32083L11.6225 6.73999L3.18666 5.74749L2.1325 6.80249L8.5025 9.86083L5.79166 12.5717L2.845 11.9817Z" fill="black"/>
</svg>
