<svg width="36" height="36" viewBox="0 0 36 36" fill="none" xmlns="http://www.w3.org/2000/svg">
<path d="M19.0801 16.2C18.3601 16.02 17.6401 15.66 17.1001 15.12C16.5601 14.94 16.3801 14.4 16.3801 14.04C16.3801 13.68 16.5601 13.14 16.9201 12.96C17.4601 12.6 18.0001 12.24 18.5401 12.42C19.6201 12.42 20.5201 12.96 21.0601 13.68L22.6801 11.52C22.1401 10.98 21.6001 10.62 21.0601 10.26C20.5201 9.89998 19.8001 9.71998 19.0801 9.71998V7.19998H16.9201V9.71998C16.0201 9.89998 15.1201 10.44 14.4001 11.16C13.6801 12.06 13.1401 13.14 13.3201 14.22C13.3201 15.3 13.6801 16.38 14.4001 17.1C15.3001 18 16.5601 18.54 17.6401 19.08C18.1801 19.26 18.9001 19.62 19.4401 19.98C19.8001 20.34 19.9801 20.88 19.9801 21.42C19.9801 21.96 19.8001 22.5 19.4401 23.04C18.9001 23.58 18.1801 23.76 17.6401 23.76C16.9201 23.76 16.0201 23.58 15.4801 23.04C14.9401 22.68 14.4001 22.14 14.0401 21.6L12.2401 23.58C12.7801 24.3 13.3201 24.84 14.0401 25.38C14.9401 25.92 16.0201 26.46 17.1001 26.46V28.8H19.0801V26.1C20.1601 25.92 21.0601 25.38 21.7801 24.66C22.6801 23.76 23.2201 22.32 23.2201 21.06C23.2201 19.98 22.8601 18.72 21.9601 18C21.0601 17.1 20.1601 16.56 19.0801 16.2ZM18.0001 3.59998C10.0801 3.59998 3.6001 10.08 3.6001 18C3.6001 25.92 10.0801 32.4 18.0001 32.4C25.9201 32.4 32.4001 25.92 32.4001 18C32.4001 10.08 25.9201 3.59998 18.0001 3.59998ZM18.0001 30.42C11.1601 30.42 5.5801 24.84 5.5801 18C5.5801 11.16 11.1601 5.57998 18.0001 5.57998C24.8401 5.57998 30.4201 11.16 30.4201 18C30.4201 24.84 24.8401 30.42 18.0001 30.42Z" fill="#79DA5A"/>
</svg>
