<svg width="36" height="36" viewBox="0 0 36 36" fill="none" xmlns="http://www.w3.org/2000/svg">
<path d="M18.3599 5.90399C24.7139 5.90399 29.9339 10.602 30.8159 16.704H34.5599L28.2599 23.904L21.9599 16.704H26.1359C25.733 14.9421 24.7447 13.3689 23.3324 12.241C21.9201 11.1132 20.1673 10.4973 18.3599 10.494C15.7499 10.494 13.4459 11.772 11.9879 13.698L8.90994 10.188C10.0884 8.84125 11.5414 7.76222 13.1713 7.02332C14.8012 6.28443 16.5704 5.90278 18.3599 5.90399ZM17.6399 30.096C11.3039 30.096 6.06594 25.398 5.18394 19.296H1.43994L7.73994 12.096C9.84594 14.49 11.9339 16.902 14.0399 19.296H9.86394C10.2669 21.0579 11.2552 22.6311 12.6675 23.7589C14.0797 24.8868 15.8326 25.5026 17.6399 25.506C20.2499 25.506 22.5539 24.228 24.0119 22.302L27.0899 25.812C25.913 27.1606 24.4603 28.2408 22.83 28.9799C21.1998 29.7189 19.4299 30.0995 17.6399 30.096Z" fill="#79DA5A"/>
</svg>
