<svg width="32" height="32" viewBox="0 0 32 32" fill="none" xmlns="http://www.w3.org/2000/svg">
<path d="M25.6002 1.76002L6.4002 9.44001C4.6402 10.08 3.2002 12.32 3.2002 14.24V28.16C3.2002 30.08 4.6402 31.04 6.4002 30.4L25.6002 22.72C27.3602 22.08 28.8002 19.84 28.8002 17.92V4.00002C28.8002 2.08002 27.3602 1.12002 25.6002 1.76002ZM26.5602 5.92001L16.9602 20.8L6.2402 13.6C6.0802 13.44 5.6002 12.96 5.9202 12.48C6.2402 11.84 7.0402 12.16 7.0402 12.16L17.1202 15.84C17.1202 15.84 24.8002 5.76002 25.2802 5.12002C25.4402 4.80002 25.9202 4.64001 26.4002 4.96001C26.8802 5.28001 26.7202 5.76002 26.5602 5.92001Z" fill="black"/>
</svg>
