<svg width="36" height="36" viewBox="0 0 36 36" fill="none" xmlns="http://www.w3.org/2000/svg">
<path d="M24.5705 5.18378C31.6445 8.80178 34.4345 17.4958 30.8165 24.5698C27.1985 31.6438 18.5225 34.4338 11.4305 30.8158C8.1904 29.1569 5.70539 26.3242 4.48247 22.8958L7.43447 21.0418C7.84832 22.4883 8.55362 23.8348 9.50702 24.9987C10.4604 26.1626 11.6418 27.1192 12.9785 27.8098C18.3965 30.5818 25.0205 28.4398 27.7925 23.0218C28.4681 21.7344 28.8819 20.3258 29.01 18.8776C29.1381 17.4293 28.978 15.97 28.5389 14.584C28.0998 13.198 27.3904 11.9127 26.4517 10.8024C25.513 9.69216 24.3635 8.77889 23.0698 8.1154C21.7762 7.4519 20.3638 7.05133 18.9144 6.93682C17.465 6.82231 16.0073 6.99613 14.6254 7.44824C13.2436 7.90035 11.965 8.6218 10.8636 9.57089C9.76222 10.52 8.85979 11.6779 8.20847 12.9778L11.5925 14.7238L2.68247 20.2678L1.98047 9.79178L5.18447 11.4298C8.82047 4.31978 17.5505 1.60178 24.5705 5.18378ZM16.7225 19.2778C16.5556 19.1096 16.4237 18.9101 16.3341 18.6908C16.2445 18.4715 16.1991 18.2367 16.2005 17.9998C16.2005 17.8738 16.2545 17.7838 16.2725 17.6578H16.2545L18.0005 8.99978L19.7465 17.6578L25.2005 23.3998L17.1005 19.5838L17.1365 19.5478C16.9925 19.4758 16.8485 19.3858 16.7225 19.2778Z" fill="black"/>
</svg>
