<svg width="36" height="36" viewBox="0 0 36 36" fill="none" xmlns="http://www.w3.org/2000/svg">
<path d="M28.7996 1.97995L7.19961 10.6199C5.21961 11.3399 3.59961 13.8599 3.59961 16.0199V31.6799C3.59961 33.8399 5.21961 34.9199 7.19961 34.1999L28.7996 25.5599C30.7796 24.8399 32.3996 22.3199 32.3996 20.1599V4.49995C32.3996 2.33995 30.7796 1.25995 28.7996 1.97995ZM29.8796 6.65995L19.0796 23.3999L7.01961 15.2999C6.83961 15.1199 6.29961 14.5799 6.65961 14.0399C7.01961 13.3199 7.91961 13.6799 7.91961 13.6799L19.2596 17.8199C19.2596 17.8199 27.8996 6.47995 28.4396 5.75995C28.6196 5.39995 29.1596 5.21995 29.6996 5.57995C30.2396 5.93995 30.0596 6.47995 29.8796 6.65995Z" fill="black"/>
</svg>
