<svg width="32" height="33" viewBox="0 0 32 33" fill="none" xmlns="http://www.w3.org/2000/svg">
<path d="M25.6002 2.25998L6.4002 9.93998C4.6402 10.58 3.2002 12.82 3.2002 14.74V28.66C3.2002 30.58 4.6402 31.54 6.4002 30.9L25.6002 23.22C27.3602 22.58 28.8002 20.34 28.8002 18.42V4.49998C28.8002 2.57998 27.3602 1.61998 25.6002 2.25998ZM26.5602 6.41998L16.9602 21.3L6.2402 14.1C6.0802 13.94 5.6002 13.46 5.9202 12.98C6.2402 12.34 7.0402 12.66 7.0402 12.66L17.1202 16.34C17.1202 16.34 24.8002 6.25998 25.2802 5.61998C25.4402 5.29998 25.9202 5.13998 26.4002 5.45998C26.8802 5.77998 26.7202 6.25998 26.5602 6.41998Z" fill="black"/>
</svg>
