<svg width="15" height="16" viewBox="0 0 15 16" fill="none" xmlns="http://www.w3.org/2000/svg">
<path d="M12.0019 10.3355C12.0019 11.2859 11.6582 12.051 10.9708 12.6308C10.2833 13.2046 9.60296 13.5482 8.36566 13.6618V15.4999H6.5736V13.6978C5.11515 13.6679 4.1179 13.4108 3.01804 12.9268V10.5597C3.53801 10.8167 4.16273 11.0439 4.89188 11.2411C5.62709 11.4383 5.99963 11.5549 6.57346 11.5908V8.81134L6.25463 8.57821C5.07117 8.11192 4.23137 7.60689 3.73521 7.06295C3.24511 6.51308 3 5.83468 3 5.02771C3 4.16099 3.33772 3.44974 4.01317 2.89381C4.69455 2.33197 5.36013 1.99129 6.57346 1.87176V0.5H8.36555V1.83595C9.73435 1.89573 10.6897 2.17072 11.7955 2.66083L10.9528 4.75878C10.0203 4.37623 9.34589 4.14309 8.36555 4.0595V6.7045C9.53109 7.15274 10.077 7.54135 10.5673 7.87005C11.0634 8.19875 11.4249 8.56044 11.6522 8.95498C11.8852 9.34935 12.0019 9.80957 12.0019 10.3355M9.30303 10.4701C9.30303 10.2191 9.2014 10.0069 8.99815 9.83354C8.7949 9.66016 8.77191 9.48088 8.36555 9.29551V11.5281C9.17843 11.3905 9.30303 11.0378 9.30303 10.4701ZM5.69884 5.02771C5.69884 5.29074 5.78849 5.50894 5.96778 5.68216C6.15314 5.84947 6.16709 6.02285 6.57346 6.20214V4.0953C5.8023 4.20893 5.69884 4.51971 5.69884 5.02771Z" fill="black"/>
</svg>
