<svg width="29" height="28" viewBox="0 0 29 28" fill="none" xmlns="http://www.w3.org/2000/svg">
<rect width="29" height="28" rx="6" fill="#D9D9D9"/>
<path d="M13.75 6.75C13.75 6.33437 14.0844 6 14.5 6C14.9156 6 15.25 6.33437 15.25 6.75V8H17C17.5531 8 18 8.44688 18 9C18 9.55312 17.5531 10 17 10H13.4094C12.6312 10 12 10.6313 12 11.4094C12 12.1125 12.5156 12.7063 13.2094 12.8063L16.0719 13.2156C17.7531 13.4562 19 14.8938 19 16.5906C19 18.475 17.4719 20 15.5906 20H15.25V21.25C15.25 21.6656 14.9156 22 14.5 22C14.0844 22 13.75 21.6656 13.75 21.25V20H11.5C10.9469 20 10.5 19.5531 10.5 19C10.5 18.4469 10.9469 18 11.5 18H15.5906C16.3687 18 17 17.3687 17 16.5906C17 15.8875 16.4844 15.2938 15.7906 15.1938L12.9281 14.7844C11.2469 14.5469 10 13.1063 10 11.4094C10 9.52813 11.5281 8 13.4094 8H13.75V6.75Z" fill="black"/>
</svg>
