<svg width="29" height="28" viewBox="0 0 29 28" fill="none" xmlns="http://www.w3.org/2000/svg">
<rect width="29" height="28" rx="6" fill="#D9D9D9"/>
<path d="M21.6601 7.27138C21.9726 7.6407 22.0152 8.16627 21.7879 8.84809C21.5606 9.5299 21.1771 10.1407 20.6373 10.6805L18.9221 12.3957L20.6267 19.8104C20.6622 19.9454 20.6196 20.0626 20.4988 20.162L19.1352 21.1847C19.0855 21.2273 19.018 21.2487 18.9328 21.2487C18.9044 21.2487 18.8795 21.2451 18.8582 21.238C18.7517 21.2167 18.6771 21.1599 18.6345 21.0675L15.6622 15.6556L12.903 18.4148L13.4676 20.4816C13.5031 20.6023 13.4747 20.7124 13.3824 20.8119L12.3596 21.8346C12.2957 21.8985 12.214 21.9305 12.1146 21.9305H12.0933C11.9868 21.9163 11.9015 21.8701 11.8376 21.792L9.82412 19.1073L7.13946 17.0938C7.06134 17.0441 7.01517 16.9624 7.00097 16.8488C6.99387 16.7565 7.02583 16.6677 7.09685 16.5825L8.11958 15.5491C8.1835 15.4852 8.26517 15.4532 8.3646 15.4532C8.40722 15.4532 8.43563 15.4567 8.44983 15.4639L10.5166 16.0285L13.2758 13.2692L7.86389 10.2969C7.76446 10.2401 7.70409 10.1549 7.68279 10.0413C7.66858 9.92763 7.70054 9.83175 7.77867 9.75363L9.1423 8.38999C9.24174 8.29766 9.34827 8.26925 9.46191 8.30476L16.5464 9.99865L18.251 8.29411C18.7907 7.75434 19.4015 7.37081 20.0834 7.14354C20.7652 6.91627 21.2907 6.95888 21.6601 7.27138Z" fill="black"/>
</svg>
