<svg width="36" height="36" viewBox="0 0 36 36" fill="none" xmlns="http://www.w3.org/2000/svg">
<path d="M17.7538 26.789L8.75382 30.2343C8.33898 30.389 7.90304 30.0726 7.92413 29.6296L8.41632 20.0039C8.42335 19.8562 8.37413 19.7085 8.28273 19.589L2.22179 12.0937C1.94054 11.7492 2.10929 11.2359 2.53819 11.1164L11.8476 8.61323C11.9952 8.57104 12.1218 8.47964 12.1991 8.35308L17.4585 0.281201C17.6976 -0.0914551 18.246 -0.0914551 18.4851 0.281201L23.7444 8.36011C23.8288 8.48667 23.9554 8.57808 24.096 8.62026L33.4054 11.1234C33.8343 11.2359 34.003 11.7562 33.7218 12.1007L27.6679 19.596C27.5765 19.7156 27.5273 19.8632 27.5343 20.0109L28.0265 29.6367C28.0476 30.0796 27.6116 30.396 27.1968 30.2414L18.1968 26.796C18.0491 26.7398 17.8944 26.7398 17.7538 26.789Z" fill="#79DA5A"/>
<path d="M32.0696 3.63522L29.1868 0.752403C29.1024 0.668028 28.9899 0.632872 28.8774 0.646934C28.7649 0.660997 28.6595 0.731309 28.6032 0.829747L25.629 6.68678C25.5446 6.83443 25.5727 7.01022 25.6923 7.12975C25.7626 7.20006 25.861 7.23522 25.9524 7.23522C26.0157 7.23522 26.079 7.22115 26.1352 7.186L31.9852 4.21881C32.0837 4.16256 32.154 4.06412 32.1681 3.94459C32.1891 3.83209 32.147 3.71959 32.0696 3.63522ZM10.4837 6.69381L7.50946 0.836778C7.45321 0.738341 7.35477 0.668028 7.23524 0.653966C7.12274 0.639903 7.00321 0.675059 6.92586 0.759434L4.04305 3.64225C3.95868 3.72662 3.92352 3.83912 3.93758 3.95162C3.95165 4.06412 4.02196 4.16959 4.1204 4.22584L9.97743 7.20006C10.0337 7.23522 10.097 7.24928 10.1602 7.24928C10.2587 7.24928 10.3501 7.21412 10.4204 7.14381C10.5399 7.01725 10.561 6.83443 10.4837 6.69381ZM20.3766 35.5219L18.3376 29.2782C18.3235 29.2149 18.2884 29.1587 18.2462 29.1165C18.1759 29.0462 18.0845 29.011 17.986 29.011C17.8173 29.011 17.6766 29.1235 17.6274 29.2852L15.5884 35.529C15.5602 35.6415 15.5813 35.761 15.6516 35.8524C15.722 35.9438 15.8274 36.0001 15.947 36.0001H20.0181C20.1306 36.0001 20.2431 35.9438 20.3134 35.8524C20.3907 35.754 20.4118 35.6344 20.3766 35.5219Z" fill="#79DA5A"/>
</svg>
