<svg width="36" height="36" viewBox="0 0 36 36" fill="none" xmlns="http://www.w3.org/2000/svg">
<path d="M18 0C8.06544 0 0 8.06544 0 18C0 27.9346 8.06544 36 18 36C27.9166 36 35.968 27.9634 35.9971 18.0533C35.9987 18.0356 35.9997 18.0178 36 18C35.9998 17.984 35.9991 17.9681 35.9978 17.9521C35.9719 8.03952 27.9187 0 18 0ZM17.5536 1.16568C18.0277 1.1304 18.1908 1.25316 17.1745 1.48932C15.7756 1.90152 17.9179 2.36088 18.1019 1.55952C19.0199 1.52892 18.9698 1.49472 19.2035 1.29024C19.6571 1.30824 19.8065 1.25424 19.8022 1.17648C24.2568 1.647 28.1912 3.84408 30.9298 7.08624C31.2466 7.85664 31.4662 8.63784 32.0414 9.23328C32.053 9.3222 32.4965 9.98712 32.265 9.2898C32.2801 9.15838 32.2786 9.02558 32.2607 8.89452C32.5303 9.31603 32.7811 9.7493 33.0124 10.193C32.998 10.2753 32.9734 10.3555 32.9393 10.4317C33.6161 12.681 31.9684 8.75772 32.206 10.417C31.6577 9.41472 31.0201 8.44884 30.456 8.65332C29.8321 8.8506 31.7045 9.10836 31.1105 9.89352C32.2063 10.9915 32.7737 12.5636 32.3381 14.1034C31.6706 14.9602 31.3502 15.4948 31.216 16.4912C30.6587 16.2702 31.0892 14.5534 30.352 16.0877C31.4363 17.1497 32.1509 19.5059 30.3653 20.3047C30.4398 19.6229 28.7741 18.3434 29.0192 20.084C29.5625 20.9866 30.6752 21.92 30.51 23.3176C30.1907 23.9584 32.1397 23.7377 30.803 24.3547C30.6115 24.583 30.6464 25.2781 31.0838 24.8969C31.59 24.9653 32.0782 24.3058 32.6707 24.5383C31.8719 25.1885 34.168 24.2654 33.3119 23.603C33.3634 22.6192 33.7212 21.0737 33.0898 22.8424C33.3166 24.2795 31.6217 23.926 31.3952 23.5904C31.689 23.1073 30.9816 20.5229 31.5634 21.8686C32.63 22.0604 33.1571 19.3586 33.4195 18.2207C33.7417 17.3488 32.8306 15.4426 33.4015 15.1636C33.745 16.4704 34.4203 16.9319 34.5607 18.3938C34.7566 19.2938 34.4588 19.6772 34.115 19.49C33.6478 20.1125 32.9555 22.3448 34.2 21.0524C34.992 19.6477 33.9091 21.9067 34.2083 21.6526C34.555 22.1335 34.5654 20.2414 34.7717 20.2108C34.6706 20.9869 34.5158 21.755 34.3084 22.5097C34.3008 22.5205 34.295 22.5259 34.2871 22.5374C33.9124 21.4916 34.1809 23.9101 33.5617 23.5829C33.4732 24.0466 33.6784 23.9659 33.9005 23.8014C33.7571 24.1903 33.5994 24.5739 33.4278 24.9512C32.7103 25.4365 31.6073 25.3955 30.8308 25.6543C29.9743 25.7015 29.3728 24.5214 28.8058 24.62C28.2096 23.7665 28.445 22.9543 27.5792 22.1335C27.976 20.8508 30.0884 23.845 29.1697 21.7292C28.0325 20.8206 28.5016 19.2082 28.0984 17.977C27.3244 18.5018 26.8661 18.1832 26.933 17.249C26.4272 16.3062 25.5683 15.5765 24.6319 16.5409C24.0635 17.5381 23.0191 18.2858 22.3452 19.0753C21.9841 20.3915 23.1739 21.2918 22.9324 22.5058C21.7562 23.5066 22.3628 20.502 21.3102 21.9355C20.1956 21.2648 20.0502 19.5541 19.4288 18.4388C19.0015 17.6443 19.6225 16.4639 18.4338 16.916C17.3416 16.8124 18.086 14.9436 17.4416 15.6719C16.4689 14.7262 14.4292 15.354 13.4852 14.8795C14.3658 15.4195 15.0214 16.4927 13.9043 17.1824C13.1458 18.2156 11.7569 18.644 10.5538 18.9886C10.0372 19.3871 7.43688 19.6722 9.33876 20.12C10.1106 20.0909 10.4872 19.8713 11.1593 19.9807C11.3558 21.0593 10.3709 21.9532 9.87264 22.9064C9.1008 23.6754 8.09604 24.1196 7.52904 25.02C7.26228 25.9326 7.81884 27.0252 8.16876 27.9205C9.12888 29.2619 6.49332 29.0484 7.66692 30.1964C7.9056 30.7696 7.4322 30.6572 7.54956 31.306C3.6108 28.2092 1.08 23.4036 1.08 18C1.08 14.5476 2.11392 11.34 3.8862 8.66448C4.1418 8.9784 4.75848 9.378 4.11552 9.5688C3.63708 10.139 4.20624 12.2051 4.91904 10.7388C5.56992 11.3044 6.49512 12.0506 7.47 11.6086C8.08704 10.8497 8.33328 9.77004 7.58448 10.8C7.03188 10.8166 7.80084 9.82008 6.84072 10.2024C5.8392 10.7183 5.24592 10.0152 5.76576 8.90352C5.74848 7.76268 3.80196 10.9408 4.6512 8.84304C5.68188 8.72784 5.3352 6.84936 4.63572 8.43696C3.90744 8.59176 5.69484 7.10964 5.36292 7.15644C5.28912 7.16688 5.10264 7.25796 4.77 7.45308C6.8922 4.79376 9.79812 2.78964 13.1414 1.79028C13.7675 1.81404 14.3377 2.0322 14.5958 2.29788C15.0217 1.88928 17.3675 2.3508 16.0636 1.79028C16.2932 1.39464 17.0791 1.20132 17.5536 1.16568ZM8.80884 7.1622C7.8462 7.58232 7.25688 8.80236 8.80884 8.26524C9.32292 8.3196 9.76032 8.99496 10.3172 8.58996C10.418 7.55568 8.76888 7.74216 8.80884 7.1622ZM13.3128 7.27668C12.739 7.25616 11.4152 8.37 12.5078 9.18216C11.3299 9.89496 12.4438 10.6841 13.334 10.3662C13.4341 9.38808 12.2954 7.86024 13.5515 7.4898C13.5378 7.34652 13.4453 7.28136 13.3128 7.27668ZM4.35312 7.99524C4.35636 8.0514 4.32 8.11692 4.20696 8.20116C4.25556 8.13276 4.30344 8.06292 4.35312 7.99524ZM11.4426 13.1569C10.3759 13.1353 12.1345 14.5368 12.0172 15.053C12.2436 15.1085 12.4639 15.0232 12.6716 14.9486C13.4532 14.3647 11.286 14.0983 11.4426 13.1569ZM6.93648 13.4125C6.82344 13.4366 6.7572 13.6771 6.90768 14.1883C7.18776 15.5974 7.03692 17.1558 7.85952 18.2772C7.95492 18.4565 8.25264 19.0177 8.2314 18.3917C8.0064 17.0168 7.48872 15.7259 7.23672 14.2826C7.3026 13.7102 7.08156 13.3823 6.93648 13.4125ZM33.7212 17.9701C33.6485 17.9921 33.5765 18.2185 33.5376 18.7711C33.1474 18.954 33.3432 20.4754 33.7241 19.8396C34.0945 19.3241 33.9343 18.0576 33.7522 17.973C33.7426 17.9682 33.7315 17.9672 33.7212 17.9701ZM31.7264 27.8928C31.3122 28.4677 30.8623 29.0159 30.3793 29.5344C30.7717 28.9433 31.1929 28.3756 31.7264 27.8928ZM10.701 28.3957C11.2842 28.3259 11.5934 30.2296 11.1136 30.8966C11.2514 31.7135 10.4778 31.9846 10.021 31.3438C9.40068 30.5633 8.84376 28.9282 10.2593 28.7993C10.4166 28.5336 10.5664 28.4119 10.701 28.3957Z" fill="#79DA5A"/>
</svg>
