<svg width="36" height="36" viewBox="0 0 36 36" fill="none" xmlns="http://www.w3.org/2000/svg">
<path fill-rule="evenodd" clip-rule="evenodd" d="M33 12V30H28.4972L28.5 34.5L21 30H15V12H33ZM21 6V10.5H13.5V24.9L7.5 28.5L7.50281 24H3V6H21ZM24.8812 16.5H23.1281L19.8 25.5H21.3815L22.3025 22.9213H25.6814L26.6088 25.5H28.2855L24.8812 16.5ZM23.9919 18.0053C24.1279 18.4611 24.2731 18.9142 24.4275 19.3641L24.4937 19.5551L25.2495 21.6891H22.728L23.4839 19.5551C23.6955 18.9665 23.8649 18.4499 23.9919 18.0053ZM11.2287 8.42852H9.72877V9.17848H5.97865V10.6785L11.5778 10.6786C11.4878 11.956 11.1637 13.1067 10.6059 14.1375C10.0003 13.3046 9.58308 12.3735 9.35175 11.3387L9.33698 11.271L7.87041 11.586L7.98045 12.0439C8.31443 13.2975 8.89057 14.4271 9.70627 15.4262C8.82159 16.3809 7.55386 17.0505 5.87972 17.432L5.81595 17.4464L6.14135 18.9106L6.5891 18.8029C8.33644 18.349 9.73095 17.5826 10.7548 16.5013C11.4722 17.1201 12.3614 17.7051 13.422 18.2593L13.4999 18.2998V16.5917C12.7741 16.1737 12.1622 15.7438 11.6639 15.304C12.491 13.9599 12.9615 12.4402 13.076 10.7553L13.0809 10.6787L13.4998 10.6785V9.17848H11.2286L11.2287 8.42852Z" fill="#79DA5A"/>
</svg>
