<svg width="36" height="36" viewBox="0 0 36 36" fill="none" xmlns="http://www.w3.org/2000/svg">
<mask id="mask0_222_78" style="mask-type:luminance" maskUnits="userSpaceOnUse" x="3" y="3" width="30" height="30">
<path d="M18 4.5C25.455 4.5 31.5 10.545 31.5 18C31.5 25.455 25.455 31.5 18 31.5C10.545 31.5 4.5 25.455 4.5 18C4.5 10.545 10.545 4.5 18 4.5Z" fill="white" stroke="white" stroke-width="2" stroke-linecap="round" stroke-linejoin="round"/>
<path d="M15.3 15.3L25.5 10.5L20.7 20.7L10.5 25.5L15.3 15.3Z" fill="black"/>
<path d="M18 19.5C18.8284 19.5 19.5 18.8284 19.5 18C19.5 17.1716 18.8284 16.5 18 16.5C17.1716 16.5 16.5 17.1716 16.5 18C16.5 18.8284 17.1716 19.5 18 19.5Z" fill="white"/>
</mask>
<g mask="url(#mask0_222_78)">
<path d="M36 0H0V36H36V0Z" fill="#79DA5A"/>
</g>
</svg>
