<svg width="25" height="25" viewBox="0 0 25 25" fill="none" xmlns="http://www.w3.org/2000/svg">
<path d="M12.9484 21.5C11.7097 21.5 10.543 21.2633 9.44837 20.79C8.3537 20.316 7.40037 19.6727 6.58837 18.86C5.77637 18.0473 5.13304 17.094 4.65837 16C4.1837 14.906 3.94704 13.7393 3.94837 12.5C3.94837 11.2573 4.18504 10.0897 4.65837 8.997C5.13237 7.90367 5.7757 6.95133 6.58837 6.14C7.40104 5.32867 8.35437 4.68533 9.44837 4.21C10.543 3.73667 11.7097 3.5 12.9484 3.5C14.191 3.5 15.3587 3.73667 16.4514 4.21C17.5447 4.684 18.4974 5.32733 19.3094 6.14C20.1214 6.95267 20.7644 7.905 21.2384 8.997C21.7117 10.0903 21.9484 11.258 21.9484 12.5C21.9484 13.7387 21.7117 14.9053 21.2384 16C20.7644 17.0947 20.121 18.048 19.3084 18.86C18.4957 19.672 17.5434 20.3153 16.4514 20.79C15.3594 21.2647 14.1917 21.5013 12.9484 21.5ZM12.9484 20.508C13.535 19.754 14.019 19.0137 14.4004 18.287C14.781 17.5603 15.0907 16.747 15.3294 15.847H10.5674C10.832 16.7977 11.148 17.6363 11.5154 18.363C11.8834 19.0897 12.361 19.8047 12.9484 20.508ZM11.6754 20.358C11.2087 19.808 10.7827 19.128 10.3974 18.318C10.012 17.5087 9.72537 16.6847 9.53737 15.846H5.70237C6.2757 17.0893 7.08804 18.1093 8.13937 18.906C9.19137 19.702 10.37 20.186 11.6754 20.358ZM14.2214 20.358C15.5267 20.186 16.7054 19.702 17.7574 18.906C18.8087 18.1093 19.621 17.0893 20.1944 15.846H16.3604C16.107 16.6973 15.788 17.5277 15.4034 18.337C15.018 19.147 14.624 19.8213 14.2214 20.358ZM5.29437 14.847H9.32937C9.25337 14.4363 9.20004 14.0363 9.16937 13.647C9.13737 13.2583 9.12137 12.876 9.12137 12.5C9.12137 12.124 9.13704 11.7417 9.16837 11.353C9.1997 10.9643 9.25304 10.5643 9.32837 10.153H5.29537C5.1867 10.4997 5.1017 10.8773 5.04037 11.286C4.97904 11.694 4.94837 12.0987 4.94837 12.5C4.94837 12.9013 4.9787 13.3063 5.03937 13.715C5.10004 14.1237 5.18504 14.5007 5.29437 14.846M10.3294 14.846H15.5674C15.6434 14.436 15.6967 14.0427 15.7274 13.666C15.7594 13.29 15.7754 12.9013 15.7754 12.5C15.7754 12.0987 15.7597 11.71 15.7284 11.334C15.697 10.958 15.6437 10.5647 15.5684 10.154H10.3284C10.253 10.564 10.1997 10.9573 10.1684 11.334C10.137 11.71 10.1214 12.0987 10.1214 12.5C10.1214 12.9013 10.137 13.29 10.1684 13.666C10.1997 14.042 10.254 14.4353 10.3294 14.846ZM16.5684 14.846H20.6024C20.711 14.5 20.796 14.123 20.8574 13.715C20.918 13.3063 20.9484 12.9013 20.9484 12.5C20.9484 12.0987 20.918 11.6937 20.8574 11.285C20.7967 10.8763 20.7117 10.4993 20.6024 10.154H16.5674C16.6434 10.564 16.6967 10.9637 16.7274 11.353C16.7594 11.7423 16.7754 12.1247 16.7754 12.5C16.7754 12.8753 16.7597 13.2577 16.7284 13.647C16.697 14.0363 16.6437 14.4363 16.5684 14.847M16.3604 9.154H20.1944C19.6084 7.88467 18.8057 6.86467 17.7864 6.094C16.767 5.32333 15.5787 4.833 14.2214 4.623C14.688 5.237 15.1077 5.93933 15.4804 6.73C15.853 7.52 16.1464 8.328 16.3604 9.154ZM10.5674 9.154H15.3294C15.0654 8.21533 14.7397 7.36667 14.3524 6.608C13.965 5.84933 13.497 5.144 12.9484 4.492C12.3997 5.14333 11.9317 5.84867 11.5444 6.608C11.157 7.36733 10.8307 8.216 10.5674 9.154ZM5.70337 9.154H9.53737C9.75137 8.32867 10.0447 7.52067 10.4174 6.73C10.79 5.93933 11.2097 5.237 11.6764 4.623C10.307 4.83367 9.1157 5.327 8.10237 6.103C7.08904 6.88033 6.28904 7.897 5.70237 9.153" fill="black"/>
</svg>
