<svg width="12" height="12" viewBox="0 0 12 12" fill="none" xmlns="http://www.w3.org/2000/svg">
<path fill-rule="evenodd" clip-rule="evenodd" d="M6 6.70701L8.8285 9.53551C8.9228 9.62659 9.04911 9.67699 9.1802 9.67585C9.3113 9.67471 9.43671 9.62213 9.52941 9.52942C9.62212 9.43672 9.6747 9.31131 9.67584 9.18021C9.67698 9.04912 9.62658 8.92281 9.5355 8.82851L6.707 6.00001L9.5355 3.17151C9.62658 3.07721 9.67698 2.95091 9.67584 2.81981C9.6747 2.68871 9.62212 2.56331 9.52941 2.4706C9.43671 2.3779 9.3113 2.32532 9.1802 2.32418C9.04911 2.32304 8.9228 2.37343 8.8285 2.46451L6 5.29301L3.1715 2.46451C3.07678 2.37569 2.95121 2.3272 2.82137 2.3293C2.69153 2.33141 2.5676 2.38395 2.47581 2.47581C2.38402 2.56767 2.33156 2.69163 2.32955 2.82147C2.32753 2.95132 2.37611 3.07685 2.465 3.17151L5.293 6.00001L2.4645 8.82851C2.41675 8.87464 2.37866 8.92981 2.35245 8.99081C2.32625 9.05181 2.31245 9.11742 2.31188 9.18381C2.3113 9.2502 2.32395 9.31604 2.34909 9.37749C2.37423 9.43894 2.41136 9.49476 2.45831 9.54171C2.50525 9.58866 2.56108 9.62578 2.62253 9.65092C2.68397 9.67606 2.74981 9.68872 2.8162 9.68814C2.88259 9.68756 2.9482 9.67377 3.00921 9.64756C3.07021 9.62136 3.12538 9.58327 3.1715 9.53551L6 6.70701Z" fill="black"/>
</svg>
