<svg width="12" height="12" viewBox="0 0 12 12" fill="none" xmlns="http://www.w3.org/2000/svg">
<path d="M5.5 10C5.5 10.1326 5.55268 10.2598 5.64645 10.3536C5.74021 10.4473 5.86739 10.5 6 10.5C6.13261 10.5 6.25979 10.4473 6.35355 10.3536C6.44732 10.2598 6.5 10.1326 6.5 10V6.5H10C10.1326 6.5 10.2598 6.44732 10.3536 6.35355C10.4473 6.25979 10.5 6.13261 10.5 6C10.5 5.86739 10.4473 5.74021 10.3536 5.64645C10.2598 5.55268 10.1326 5.5 10 5.5H6.5V2C6.5 1.86739 6.44732 1.74021 6.35355 1.64645C6.25979 1.55268 6.13261 1.5 6 1.5C5.86739 1.5 5.74021 1.55268 5.64645 1.64645C5.55268 1.74021 5.5 1.86739 5.5 2V5.5H2C1.86739 5.5 1.74021 5.55268 1.64645 5.64645C1.55268 5.74021 1.5 5.86739 1.5 6C1.5 6.13261 1.55268 6.25979 1.64645 6.35355C1.74021 6.44732 1.86739 6.5 2 6.5H5.5V10Z" fill="black"/>
</svg>
