<svg width="12" height="13" viewBox="0 0 12 13" fill="none" xmlns="http://www.w3.org/2000/svg">
<path fill-rule="evenodd" clip-rule="evenodd" d="M6 7.20701L8.8285 10.0355C8.9228 10.1266 9.04911 10.177 9.1802 10.1759C9.3113 10.1747 9.43671 10.1221 9.52941 10.0294C9.62212 9.93672 9.6747 9.81131 9.67584 9.68021C9.67698 9.54912 9.62658 9.42281 9.5355 9.32851L6.707 6.50001L9.5355 3.67151C9.62658 3.57721 9.67698 3.45091 9.67584 3.31981C9.6747 3.18871 9.62212 3.06331 9.52941 2.9706C9.43671 2.8779 9.3113 2.82532 9.1802 2.82418C9.04911 2.82304 8.9228 2.87343 8.8285 2.96451L6 5.79301L3.1715 2.96451C3.07678 2.87569 2.95121 2.8272 2.82137 2.8293C2.69153 2.83141 2.5676 2.88395 2.47581 2.97581C2.38402 3.06767 2.33156 3.19163 2.32955 3.32147C2.32753 3.45132 2.37611 3.57685 2.465 3.67151L5.293 6.50001L2.4645 9.32851C2.41675 9.37464 2.37866 9.42981 2.35245 9.49081C2.32625 9.55181 2.31245 9.61742 2.31188 9.68381C2.3113 9.7502 2.32395 9.81604 2.34909 9.87749C2.37423 9.93894 2.41136 9.99476 2.45831 10.0417C2.50525 10.0887 2.56108 10.1258 2.62253 10.1509C2.68397 10.1761 2.74981 10.1887 2.8162 10.1881C2.88259 10.1876 2.9482 10.1738 3.00921 10.1476C3.07021 10.1214 3.12538 10.0833 3.1715 10.0355L6 7.20701Z" fill="black"/>
</svg>
