<svg width="12" height="13" viewBox="0 0 12 13" fill="none" xmlns="http://www.w3.org/2000/svg">
<path d="M5.5 10.5C5.5 10.6326 5.55268 10.7598 5.64645 10.8536C5.74021 10.9473 5.86739 11 6 11C6.13261 11 6.25979 10.9473 6.35355 10.8536C6.44732 10.7598 6.5 10.6326 6.5 10.5V7H10C10.1326 7 10.2598 6.94732 10.3536 6.85355C10.4473 6.75979 10.5 6.63261 10.5 6.5C10.5 6.36739 10.4473 6.24021 10.3536 6.14645C10.2598 6.05268 10.1326 6 10 6H6.5V2.5C6.5 2.36739 6.44732 2.24021 6.35355 2.14645C6.25979 2.05268 6.13261 2 6 2C5.86739 2 5.74021 2.05268 5.64645 2.14645C5.55268 2.24021 5.5 2.36739 5.5 2.5V6H2C1.86739 6 1.74021 6.05268 1.64645 6.14645C1.55268 6.24021 1.5 6.36739 1.5 6.5C1.5 6.63261 1.55268 6.75979 1.64645 6.85355C1.74021 6.94732 1.86739 7 2 7H5.5V10.5Z" fill="black"/>
</svg>
