<svg width="20" height="21" viewBox="0 0 20 21" fill="none" xmlns="http://www.w3.org/2000/svg">
<path fill-rule="evenodd" clip-rule="evenodd" d="M11.6667 3.83334C12.3297 3.83334 12.9656 4.09674 13.4344 4.56558C13.9033 5.03442 14.1667 5.6703 14.1667 6.33334H16.6667C17.1087 6.33334 17.5326 6.50894 17.8452 6.8215C18.1577 7.13406 18.3333 7.55798 18.3333 8.00001V16.3333C18.3333 16.7754 18.1577 17.1993 17.8452 17.5119C17.5326 17.8244 17.1087 18 16.6667 18H3.33333C2.8913 18 2.46738 17.8244 2.15482 17.5119C1.84226 17.1993 1.66666 16.7754 1.66666 16.3333V8.00001C1.66666 7.55798 1.84226 7.13406 2.15482 6.8215C2.46738 6.50894 2.8913 6.33334 3.33333 6.33334H5.83333C5.83333 5.6703 6.09672 5.03442 6.56556 4.56558C7.0344 4.09674 7.67029 3.83334 8.33333 3.83334H11.6667ZM6.66666 7.16668C6.46255 7.1667 6.26555 7.24164 6.11302 7.37727C5.96049 7.51291 5.86305 7.6998 5.83916 7.90251L5.83333 8.00001V16.3333C5.83357 16.5457 5.9149 16.75 6.0607 16.9045C6.20651 17.0589 6.40579 17.1519 6.61783 17.1643C6.82986 17.1768 7.03865 17.1078 7.20152 16.9715C7.3644 16.8351 7.46908 16.6418 7.49416 16.4308L7.5 16.3333V8.00001C7.5 7.779 7.4122 7.56704 7.25592 7.41075C7.09964 7.25447 6.88768 7.16668 6.66666 7.16668ZM13.3333 7.16668C13.1123 7.16668 12.9004 7.25447 12.7441 7.41075C12.5878 7.56704 12.5 7.779 12.5 8.00001V16.3333C12.5 16.5544 12.5878 16.7663 12.7441 16.9226C12.9004 17.0789 13.1123 17.1667 13.3333 17.1667C13.5543 17.1667 13.7663 17.0789 13.9226 16.9226C14.0789 16.7663 14.1667 16.5544 14.1667 16.3333V8.00001C14.1667 7.779 14.0789 7.56704 13.9226 7.41075C13.7663 7.25447 13.5543 7.16668 13.3333 7.16668ZM11.6667 5.50001H8.33333C8.12922 5.50004 7.93222 5.57497 7.77969 5.71061C7.62716 5.84624 7.52971 6.03313 7.50583 6.23584L7.5 6.33334H12.5C12.5 6.12923 12.425 5.93223 12.2894 5.7797C12.1538 5.62717 11.9669 5.52972 11.7642 5.50584L11.6667 5.50001Z" fill="black"/>
</svg>
