<svg width="29" height="28" viewBox="0 0 29 28" fill="none" xmlns="http://www.w3.org/2000/svg">
<rect width="29" height="28" rx="6" fill="#D9D9D9"/>
<path fill-rule="evenodd" clip-rule="evenodd" d="M15.5 8C15.9973 8 16.4742 8.19754 16.8258 8.54917C17.1775 8.90081 17.375 9.37772 17.375 9.875H19.25C19.5815 9.875 19.8995 10.0067 20.1339 10.2411C20.3683 10.4755 20.5 10.7935 20.5 11.125V17.375C20.5 17.7065 20.3683 18.0245 20.1339 18.2589C19.8995 18.4933 19.5815 18.625 19.25 18.625H9.25C8.91848 18.625 8.60054 18.4933 8.36612 18.2589C8.1317 18.0245 8 17.7065 8 17.375V11.125C8 10.7935 8.1317 10.4755 8.36612 10.2411C8.60054 10.0067 8.91848 9.875 9.25 9.875H11.125C11.125 9.37772 11.3225 8.90081 11.6742 8.54917C12.0258 8.19754 12.5027 8 13 8H15.5ZM11.75 10.5C11.5969 10.5 11.4492 10.5562 11.3348 10.6579C11.2204 10.7597 11.1473 10.8998 11.1294 11.0519L11.125 11.125V17.375C11.1252 17.5343 11.1862 17.6875 11.2955 17.8034C11.4049 17.9192 11.5543 17.9889 11.7134 17.9982C11.8724 18.0076 12.029 17.9558 12.1511 17.8536C12.2733 17.7513 12.3518 17.6063 12.3706 17.4481L12.375 17.375V11.125C12.375 10.9592 12.3092 10.8003 12.1919 10.6831C12.0747 10.5658 11.9158 10.5 11.75 10.5ZM16.75 10.5C16.5842 10.5 16.4253 10.5658 16.3081 10.6831C16.1908 10.8003 16.125 10.9592 16.125 11.125V17.375C16.125 17.5408 16.1908 17.6997 16.3081 17.8169C16.4253 17.9342 16.5842 18 16.75 18C16.9158 18 17.0747 17.9342 17.1919 17.8169C17.3092 17.6997 17.375 17.5408 17.375 17.375V11.125C17.375 10.9592 17.3092 10.8003 17.1919 10.6831C17.0747 10.5658 16.9158 10.5 16.75 10.5ZM15.5 9.25H13C12.8469 9.25002 12.6992 9.30622 12.5848 9.40795C12.4704 9.50967 12.3973 9.64984 12.3794 9.80188L12.375 9.875H16.125C16.125 9.72192 16.0688 9.57416 15.9671 9.45977C15.8653 9.34537 15.7252 9.27229 15.5731 9.25438L15.5 9.25Z" fill="black"/>
</svg>
