<svg width="29" height="28" viewBox="0 0 29 28" fill="none" xmlns="http://www.w3.org/2000/svg">
<rect width="29" height="28" rx="6" fill="#D9D9D9"/>
<path fill-rule="evenodd" clip-rule="evenodd" d="M8.46875 19.875C8.34443 19.875 8.2252 19.9244 8.13729 20.0123C8.04939 20.1002 8 20.2194 8 20.3437C8 20.4681 8.04939 20.5873 8.13729 20.6752C8.2252 20.7631 8.34443 20.8125 8.46875 20.8125H20.9687C21.0931 20.8125 21.2123 20.7631 21.3002 20.6752C21.3881 20.5873 21.4375 20.4681 21.4375 20.3437C21.4375 20.2194 21.3881 20.1002 21.3002 20.0123C21.2123 19.9244 21.0931 19.875 20.9687 19.875H17.8437V16.5937C17.8437 15.415 17.8437 14.8263 17.4775 14.46C17.1112 14.0938 16.5225 14.0938 15.3437 14.0938H14.0937C12.915 14.0938 12.3262 14.0938 11.96 14.46C11.5937 14.8263 11.5937 15.415 11.5937 16.5937V19.875H8.46875ZM13 15.9687C13 15.8444 13.0494 15.7252 13.1373 15.6373C13.2252 15.5494 13.3444 15.5 13.4687 15.5H15.9687C16.0931 15.5 16.2123 15.5494 16.3002 15.6373C16.3881 15.7252 16.4375 15.8444 16.4375 15.9687C16.4375 16.0931 16.3881 16.2123 16.3002 16.3002C16.2123 16.3881 16.0931 16.4375 15.9687 16.4375H13.4687C13.3444 16.4375 13.2252 16.3881 13.1373 16.3002C13.0494 16.2123 13 16.0931 13 15.9687ZM13 17.8437C13 17.7194 13.0494 17.6002 13.1373 17.5123C13.2252 17.4244 13.3444 17.375 13.4687 17.375H15.9687C16.0931 17.375 16.2123 17.4244 16.3002 17.5123C16.3881 17.6002 16.4375 17.7194 16.4375 17.8437C16.4375 17.9681 16.3881 18.0873 16.3002 18.1752C16.2123 18.2631 16.0931 18.3125 15.9687 18.3125H13.4687C13.3444 18.3125 13.2252 18.2631 13.1373 18.1752C13.0494 18.0873 13 17.9681 13 17.8437Z" fill="black"/>
<path opacity="0.5" d="M12.2188 9.40625C12.8081 9.40625 13.1025 9.40625 13.2856 9.58938C13.4688 9.7725 13.4688 10.0669 13.4688 10.6562V11.7762C13.5662 11.8237 13.6525 11.885 13.7275 11.96C13.98 12.2125 14.0587 12.5712 14.0831 13.1562V14.0938C12.9119 14.0938 12.325 14.095 11.96 14.46C11.5938 14.8263 11.5938 15.415 11.5938 16.5938V19.875H9.09375V14.0938C9.09375 12.915 9.09375 12.3263 9.46 11.96C9.53518 11.8845 9.62268 11.8224 9.71875 11.7762V10.6562C9.71875 10.0669 9.71875 9.7725 9.90188 9.58938C10.085 9.40625 10.3794 9.40625 10.9688 9.40625H11.125V8.46875C11.125 8.34443 11.1744 8.2252 11.2623 8.13729C11.3502 8.04939 11.4694 8 11.5938 8C11.7181 8 11.8373 8.04939 11.9252 8.13729C12.0131 8.2252 12.0625 8.34443 12.0625 8.46875V9.40625H12.2188ZM20.1212 9.87313C19.8987 9.55188 19.5062 9.40437 18.7212 9.11063C17.1869 8.535 16.42 8.2475 15.8819 8.62C15.3438 8.99375 15.3438 9.8125 15.3438 11.4512V14.0938C16.5225 14.0938 17.1112 14.0938 17.4775 14.46C17.8438 14.8263 17.8438 15.415 17.8438 16.5938V19.875H20.3438V11.4512C20.3438 10.6137 20.3437 10.1944 20.1212 9.87313Z" fill="black"/>
</svg>
