<svg width="20" height="21" viewBox="0 0 20 21" fill="none" xmlns="http://www.w3.org/2000/svg">
<path fill-rule="evenodd" clip-rule="evenodd" d="M1.66666 18.2083C1.5009 18.2083 1.34193 18.2742 1.22472 18.3914C1.10751 18.5086 1.04166 18.6676 1.04166 18.8333C1.04166 18.9991 1.10751 19.1581 1.22472 19.2753C1.34193 19.3925 1.5009 19.4583 1.66666 19.4583H18.3333C18.4991 19.4583 18.6581 19.3925 18.7753 19.2753C18.8925 19.1581 18.9583 18.9991 18.9583 18.8333C18.9583 18.6676 18.8925 18.5086 18.7753 18.3914C18.6581 18.2742 18.4991 18.2083 18.3333 18.2083H14.1667V13.8333C14.1667 12.2617 14.1667 11.4767 13.6783 10.9883C13.19 10.5 12.405 10.5 10.8333 10.5H9.16666C7.595 10.5 6.81 10.5 6.32166 10.9883C5.83333 11.4767 5.83333 12.2617 5.83333 13.8333V18.2083H1.66666ZM7.70833 13C7.70833 12.8342 7.77418 12.6753 7.89139 12.5581C8.0086 12.4408 8.16757 12.375 8.33333 12.375H11.6667C11.8324 12.375 11.9914 12.4408 12.1086 12.5581C12.2258 12.6753 12.2917 12.8342 12.2917 13C12.2917 13.1658 12.2258 13.3247 12.1086 13.4419C11.9914 13.5592 11.8324 13.625 11.6667 13.625H8.33333C8.16757 13.625 8.0086 13.5592 7.89139 13.4419C7.77418 13.3247 7.70833 13.1658 7.70833 13ZM7.70833 15.5C7.70833 15.3342 7.77418 15.1753 7.89139 15.0581C8.0086 14.9408 8.16757 14.875 8.33333 14.875H11.6667C11.8324 14.875 11.9914 14.9408 12.1086 15.0581C12.2258 15.1753 12.2917 15.3342 12.2917 15.5C12.2917 15.6658 12.2258 15.8247 12.1086 15.9419C11.9914 16.0592 11.8324 16.125 11.6667 16.125H8.33333C8.16757 16.125 8.0086 16.0592 7.89139 15.9419C7.77418 15.8247 7.70833 15.6658 7.70833 15.5Z" fill="black"/>
<path opacity="0.5" d="M6.66667 4.25C7.4525 4.25 7.845 4.25 8.08917 4.49417C8.33333 4.73833 8.33333 5.13083 8.33333 5.91667V7.41C8.46333 7.47333 8.57833 7.555 8.67833 7.655C9.015 7.99167 9.12 8.47 9.1525 9.25V10.5C7.59083 10.5 6.80833 10.5017 6.32167 10.9883C5.83333 11.4767 5.83333 12.2617 5.83333 13.8333V18.2083H2.5V10.5C2.5 8.92833 2.5 8.14333 2.98833 7.655C3.08857 7.55432 3.20525 7.47147 3.33333 7.41V5.91667C3.33333 5.13083 3.33333 4.73833 3.5775 4.49417C3.82167 4.25 4.21417 4.25 5 4.25H5.20833V3C5.20833 2.83424 5.27418 2.67527 5.39139 2.55806C5.5086 2.44085 5.66757 2.375 5.83333 2.375C5.99909 2.375 6.15806 2.44085 6.27527 2.55806C6.39249 2.67527 6.45833 2.83424 6.45833 3V4.25H6.66667ZM17.2033 4.8725C16.9067 4.44417 16.3833 4.2475 15.3367 3.85583C13.2908 3.08833 12.2683 2.705 11.5508 3.20167C10.8333 3.7 10.8333 4.79167 10.8333 6.97667V10.5C12.405 10.5 13.19 10.5 13.6783 10.9883C14.1667 11.4767 14.1667 12.2617 14.1667 13.8333V18.2083H17.5V6.97667C17.5 5.86 17.5 5.30083 17.2033 4.8725Z" fill="black"/>
</svg>
