<svg width="29" height="28" viewBox="0 0 29 28" fill="none" xmlns="http://www.w3.org/2000/svg">
<rect width="29" height="28" rx="6" fill="#D9D9D9"/>
<path d="M18 9C20.125 9 21.75 11.275 21.75 14V17.125C21.75 17.2908 21.6842 17.4497 21.5669 17.5669C21.4497 17.6842 21.2908 17.75 21.125 17.75H20.3931C20.2637 18.1155 20.0243 18.432 19.7076 18.6558C19.391 18.8796 19.0128 18.9998 18.625 18.9998C18.2373 18.9998 17.859 18.8796 17.5424 18.6558C17.2258 18.432 16.9863 18.1155 16.8569 17.75H12.8931C12.7637 18.1155 12.5242 18.432 12.2076 18.6558C11.891 18.8796 11.5128 18.9998 11.125 18.9998C10.7372 18.9998 10.359 18.8796 10.0424 18.6558C9.72575 18.432 9.48626 18.1155 9.35688 17.75H8.625C8.45924 17.75 8.30027 17.6842 8.18306 17.5669C8.06585 17.4497 8 17.2908 8 17.125V10.25C8 9.91848 8.1317 9.60054 8.36612 9.36612C8.60054 9.1317 8.91848 9 9.25 9H18ZM11.125 16.5C10.9592 16.5 10.8003 16.5658 10.6831 16.6831C10.5658 16.8003 10.5 16.9592 10.5 17.125C10.5 17.2908 10.5658 17.4497 10.6831 17.5669C10.8003 17.6842 10.9592 17.75 11.125 17.75C11.2908 17.75 11.4497 17.6842 11.5669 17.5669C11.6842 17.4497 11.75 17.2908 11.75 17.125C11.75 16.9592 11.6842 16.8003 11.5669 16.6831C11.4497 16.5658 11.2908 16.5 11.125 16.5ZM18.625 16.5C18.4592 16.5 18.3003 16.5658 18.1831 16.6831C18.0658 16.8003 18 16.9592 18 17.125C18 17.2908 18.0658 17.4497 18.1831 17.5669C18.3003 17.6842 18.4592 17.75 18.625 17.75C18.7908 17.75 18.9497 17.6842 19.0669 17.5669C19.1842 17.4497 19.25 17.2908 19.25 17.125C19.25 16.9592 19.1842 16.8003 19.0669 16.6831C18.9497 16.5658 18.7908 16.5 18.625 16.5ZM18.15 10.2569L18.8175 13.375H20.465C20.2694 11.6525 19.2806 10.3625 18.15 10.2569ZM11.125 10.25H9.25V12.125H11.125V10.25ZM14.25 10.25H12.375V12.125H14.25V10.25ZM16.8694 10.25H15.5V12.125H17.2713L16.8694 10.25Z" fill="black"/>
</svg>
