<svg width="20" height="21" viewBox="0 0 20 21" fill="none" xmlns="http://www.w3.org/2000/svg">
<path d="M14.1667 3.83334C17 3.83334 19.1667 6.86668 19.1667 10.5V14.6667C19.1667 14.8877 19.0789 15.0997 18.9226 15.2559C18.7663 15.4122 18.5543 15.5 18.3333 15.5H17.3575C17.185 15.9874 16.8657 16.4093 16.4435 16.7077C16.0213 17.0061 15.517 17.1664 15 17.1664C14.483 17.1664 13.9787 17.0061 13.5565 16.7077C13.1343 16.4093 12.815 15.9874 12.6425 15.5H7.3575C7.18499 15.9874 6.86567 16.4093 6.44348 16.7077C6.0213 17.0061 5.517 17.1664 5 17.1664C4.483 17.1664 3.97871 17.0061 3.55652 16.7077C3.13434 16.4093 2.81502 15.9874 2.6425 15.5H1.66667C1.44566 15.5 1.23369 15.4122 1.07741 15.2559C0.921133 15.0997 0.833336 14.8877 0.833336 14.6667V5.50001C0.833336 5.05798 1.00893 4.63406 1.32149 4.3215C1.63405 4.00894 2.05798 3.83334 2.5 3.83334H14.1667ZM5 13.8333C4.77899 13.8333 4.56703 13.9211 4.41075 14.0774C4.25447 14.2337 4.16667 14.4457 4.16667 14.6667C4.16667 14.8877 4.25447 15.0997 4.41075 15.2559C4.56703 15.4122 4.77899 15.5 5 15.5C5.22102 15.5 5.43298 15.4122 5.58926 15.2559C5.74554 15.0997 5.83334 14.8877 5.83334 14.6667C5.83334 14.4457 5.74554 14.2337 5.58926 14.0774C5.43298 13.9211 5.22102 13.8333 5 13.8333ZM15 13.8333C14.779 13.8333 14.567 13.9211 14.4107 14.0774C14.2545 14.2337 14.1667 14.4457 14.1667 14.6667C14.1667 14.8877 14.2545 15.0997 14.4107 15.2559C14.567 15.4122 14.779 15.5 15 15.5C15.221 15.5 15.433 15.4122 15.5893 15.2559C15.7455 15.0997 15.8333 14.8877 15.8333 14.6667C15.8333 14.4457 15.7455 14.2337 15.5893 14.0774C15.433 13.9211 15.221 13.8333 15 13.8333ZM14.3667 5.50918L15.2567 9.66668H17.4533C17.1925 7.37001 15.8742 5.65001 14.3667 5.50918ZM5 5.50001H2.5V8.00001H5V5.50001ZM9.16667 5.50001H6.66667V8.00001H9.16667V5.50001ZM12.6592 5.50001H10.8333V8.00001H13.195L12.6592 5.50001Z" fill="black"/>
</svg>
