<svg width="36" height="36" viewBox="0 0 36 36" fill="none" xmlns="http://www.w3.org/2000/svg">
<path d="M16.5 13.5H22.5C22.8978 13.5 23.2794 13.342 23.5607 13.0607C23.842 12.7794 24 12.3978 24 12C24 11.6022 23.842 11.2206 23.5607 10.9393C23.2794 10.658 22.8978 10.5 22.5 10.5H19.5V9C19.5 8.60217 19.342 8.22064 19.0607 7.93934C18.7794 7.65803 18.3978 7.5 18 7.5C17.6022 7.5 17.2206 7.65803 16.9393 7.93934C16.658 8.22064 16.5 8.60217 16.5 9V10.5C15.3065 10.5 14.1619 10.9741 13.318 11.818C12.4741 12.6619 12 13.8065 12 15C12 16.1935 12.4741 17.3381 13.318 18.182C14.1619 19.0259 15.3065 19.5 16.5 19.5H19.5C19.8978 19.5 20.2794 19.658 20.5607 19.9393C20.842 20.2206 21 20.6022 21 21C21 21.3978 20.842 21.7794 20.5607 22.0607C20.2794 22.342 19.8978 22.5 19.5 22.5H13.5C13.1022 22.5 12.7206 22.658 12.4393 22.9393C12.158 23.2206 12 23.6022 12 24C12 24.3978 12.158 24.7794 12.4393 25.0607C12.7206 25.342 13.1022 25.5 13.5 25.5H16.5V27C16.5 27.3978 16.658 27.7794 16.9393 28.0607C17.2206 28.342 17.6022 28.5 18 28.5C18.3978 28.5 18.7794 28.342 19.0607 28.0607C19.342 27.7794 19.5 27.3978 19.5 27V25.5C20.6935 25.5 21.8381 25.0259 22.682 24.182C23.5259 23.3381 24 22.1935 24 21C24 19.8065 23.5259 18.6619 22.682 17.818C21.8381 16.9741 20.6935 16.5 19.5 16.5H16.5C16.1022 16.5 15.7206 16.342 15.4393 16.0607C15.158 15.7794 15 15.3978 15 15C15 14.6022 15.158 14.2206 15.4393 13.9393C15.7206 13.658 16.1022 13.5 16.5 13.5ZM18 1.5C14.7366 1.5 11.5465 2.46771 8.8331 4.28075C6.11969 6.09379 4.00484 8.67074 2.75599 11.6857C1.50715 14.7007 1.18039 18.0183 1.81705 21.219C2.45371 24.4197 4.02518 27.3597 6.33274 29.6673C8.64031 31.9748 11.5803 33.5463 14.781 34.1829C17.9817 34.8196 21.2993 34.4929 24.3143 33.244C27.3293 31.9952 29.9062 29.8803 31.7192 27.1669C33.5323 24.4535 34.5 21.2634 34.5 18C34.5 13.6239 32.7616 9.42709 29.6673 6.33274C26.5729 3.23839 22.3761 1.5 18 1.5ZM18 31.5C15.33 31.5 12.7199 30.7082 10.4998 29.2248C8.27974 27.7414 6.54942 25.633 5.52763 23.1662C4.50585 20.6994 4.2385 17.985 4.75941 15.3663C5.28031 12.7475 6.56606 10.3421 8.45406 8.45406C10.3421 6.56605 12.7475 5.2803 15.3663 4.7594C17.985 4.2385 20.6994 4.50584 23.1662 5.52763C25.633 6.54941 27.7414 8.27974 29.2248 10.4998C30.7082 12.7199 31.5 15.33 31.5 18C31.5 21.5804 30.0777 25.0142 27.5459 27.5459C25.0142 30.0777 21.5804 31.5 18 31.5Z" fill="#217905"/>
</svg>
