<?xml version="1.0" encoding="UTF-8"?>
<svg id="Layer_2" data-name="Layer 2" xmlns="http://www.w3.org/2000/svg" xmlns:xlink="http://www.w3.org/1999/xlink" viewBox="0 0 947.7 346.71">
  <defs>
    <style>
      .cls-1 {
        fill: none;
      }

      .cls-2 {
        clip-path: url(#clippath-1);
      }

      .cls-3 {
        fill: #7ada5b;
      }

      .cls-4 {
        fill: #91e776;
      }

      .cls-5 {
        fill: #96843b;
      }

      .cls-6 {
        fill: #79da5a;
      }

      .cls-7 {
        clip-path: url(#clippath);
      }
    </style>
    <clipPath id="clippath">
      <rect class="cls-1" y="254.41" width="267.9" height="36.9"/>
    </clipPath>
    <clipPath id="clippath-1">
      <rect class="cls-1" x="566.5" y="127.31" width="15.4" height="9.8"/>
    </clipPath>
  </defs>
  <g id="Layer_1-2" data-name="Layer 1">
    <g>
      <path class="cls-5" d="M409.4,226.21h-2.1c-.5-4.2-2.1-7.4-4.7-9.4s-6.5-3.1-11.8-3.1h-23.8v29.7h18.6c3.9,0,6.7-.7,8.3-2.1,1.6-1.4,2.4-3.7,2.4-6.7v-1.7h2v25.6h-2v-1.3c0-3.2-.8-5.6-2.3-7.1s-3.9-2.2-7.2-2.2h-19.7v26.5c0,3.5.9,5.9,2.6,7.1,1.8,1.2,4.5,1.8,8.2,1.8v2h-33.2v-2h.7c3.3,0,5.8-.7,7.4-2s2.5-3.7,2.5-7.1v-53.7c0-3.1-.8-5.3-2.5-6.6s-4.3-2-8-2v-2h63.9l.7,16.2v.1Z" vector-effect="non-scaling-stroke"/>
      <path class="cls-5" d="M433.6,270.91c0,2.6.8,4.8,2.4,6.5,1.6,1.7,3.6,2.5,5.9,2.5s4.3-.6,6.6-1.7c2.3-1.1,4.4-2.8,6.5-5v-30.3c0-4.2-2.5-6.4-7.5-6.4h-1.1v-2h17.5v39c0,1.3.4,2.6,1.2,4,.8,1.3,2,2,3.7,2s2.2-.3,3.6-.9v2.1l-15.3,5.9h-2.1v-10.7h-.2c-5.9,7.3-11.6,11-17.1,11s-5.1-.7-7.1-2.1c-2-1.4-3.5-3.2-4.4-5.4-1-2.2-1.5-4.4-1.5-6.7v-28.9c0-2.8-.6-4.8-1.9-5.7-1.3-1-3.3-1.5-6-1.5h-1.3v-2h18.2v36.4l-.1-.1Z" vector-effect="non-scaling-stroke"/>
      <path class="cls-5" d="M493.7,244.01c3.8-4.1,6.9-6.9,9.3-8.4,2.4-1.5,5.1-2.3,8-2.3s5.8.9,7.8,2.6c2,1.7,3.4,3.8,4.3,6.3.9,2.5,1.3,4.9,1.3,7.3v24.2c0,3.7.6,6.2,1.7,7.5,1.2,1.3,3.2,2,6,2.1v2h-25.6v-2c2.3,0,4.1-.2,5.4-.7,1.2-.5,2.1-1.4,2.7-2.8.5-1.4.8-3.4.8-6.1v-24.6c0-2.3-.8-4.5-2.3-6.4s-3.7-2.9-6.4-2.9-4.4.6-6.5,1.8-4.2,3.1-6.6,5.5v26.6c0,3.8.6,6.3,1.9,7.6,1.2,1.3,3.4,2,6.5,2v2h-25.2v-2c2.3-.2,3.9-.6,5-1.2,1.1-.6,1.8-1.5,2.2-2.7s.6-3,.6-5.4v-27.3c0-1.7-.4-3.1-1.1-4.4-.7-1.2-1.9-1.9-3.5-1.9s-1.4.1-2,.4c-.6.3-1,.4-1.3.5l-.7-2.1,15.8-6h1.9v10.8Z" vector-effect="non-scaling-stroke"/>
      <path class="cls-5" d="M574.8,270.61l28-64h2l29.6,68.1c1.1,2.5,2.1,4.3,3.1,5.5s2,2,3.1,2.4,2.6.5,4.5.5v2h-30.9v-2c2.6,0,4.6-.5,5.9-1.4,1.3-.9,2-2.2,2-3.8s-.5-3.1-1.4-5.2l-5.7-12.9h-30.3l-6.2,14.3c-.7,1.5-1.1,2.8-1.1,3.9,0,3.4,2.7,5,8.1,5v2h-21.7v-2c1.8-.2,3.3-.7,4.4-1.6,1.1-.8,2.2-2.1,3.1-3.7.9-1.6,2.1-4.1,3.6-7.3l-.1.2ZM613.3,255.71l-13.4-30.6-13.4,30.6h26.8Z" vector-effect="non-scaling-stroke"/>
      <path class="cls-5" d="M667.6,233.31c2.1,0,4.3.4,6.5,1.1,1.5.5,2.8.8,3.7.8s1.4-.2,2.1-.7h2v15.4h-2c-.6-4-2-7.3-4.3-9.8s-5-3.8-8.2-3.8-4.7.6-6.3,1.9c-1.6,1.2-2.5,2.9-2.5,5s.5,3.1,1.4,4.3,2.2,2.3,3.8,3.3,4.2,2.4,7.7,4.3c4.5,2.4,8,4.8,10.4,7.1s3.6,5.5,3.6,9.4-.9,6.4-2.7,8.7-3.9,3.9-6.5,4.9c-2.5,1-4.9,1.5-7.2,1.5s-5.2-.5-8.9-1.5c-1.7-.5-2.8-.8-3.4-.8-1,0-1.6.3-2,.8h-2.3v-17.1h1.9c.5,4.5,2.2,8.2,4.9,11,2.8,2.8,6.1,4.2,9.9,4.2s4.2-.7,5.9-2.2,2.5-3.3,2.5-5.5-.7-4.6-2.2-6-3.1-2.7-4.9-3.8c-1.8-1.1-3-1.7-3.5-2-.3-.2-1.3-.8-3.1-1.7-2.6-1.5-4.7-2.8-6.3-3.9-1.6-1.1-2.9-2.6-3.9-4.4-1.1-1.8-1.6-4.1-1.6-6.8,0-4.1,1.4-7.4,4.3-10,2.9-2.6,6.5-3.8,11-3.8l.2.1Z" vector-effect="non-scaling-stroke"/>
      <path class="cls-5" d="M704.2,206.41c1.6,0,2.9.6,4,1.7,1.1,1.1,1.7,2.4,1.7,3.9s-.6,3-1.7,4.1-2.4,1.6-4,1.6-2.9-.5-4-1.6-1.6-2.5-1.6-4.1.5-2.8,1.6-3.9,2.4-1.7,4-1.7ZM709,273.81c0,3.6.6,6,1.7,7.4,1.2,1.3,3.1,2,5.7,2.1v2h-24.6v-2c3,0,5.1-.7,6.4-2.1,1.2-1.4,1.9-3.9,1.9-7.6v-26.5c0-2-.4-3.6-1.3-4.8-.9-1.2-2.2-1.9-4.1-1.9s-1.5.2-2.2.6l-.7-2,15.2-5.8h2v40.6h0Z" vector-effect="non-scaling-stroke"/>
      <path class="cls-5" d="M745.3,233.31c11,0,16.4,4.4,16.4,13.1v29c0,2,.3,3.3.9,3.9s1.4.9,2.3.9,2.1-.3,3.1-.9c.9-.6,2.3-1.8,4.2-3.6v2.7c-2.8,3.1-5,5.3-6.8,6.5s-3.6,1.8-5.5,1.8-3.8-.7-5.1-2.2-1.9-3.7-1.9-6.6c-3.2,3.1-6.2,5.3-8.9,6.7s-5.7,2.1-8.9,2.1-5.9-1.2-8.1-3.6-3.3-5.3-3.3-8.8c0-5.8,3.1-10.4,9.3-13.6,5.9-3.1,12.6-6,19.9-8.6v-3.1c0-2.9-.2-5.3-.6-7-.4-1.8-1.3-3.2-2.7-4.2-1.4-1.1-3.6-1.6-6.5-1.6s-5,.7-6.4,2.1-2.1,3.1-2.1,5.2v2.8c.1,1.2-.3,2.3-1.1,3.1s-1.8,1.2-3.1,1.2-2.5-.4-3.4-1.2-1.3-1.9-1.3-3.4c0-3.7,1.7-6.7,5.2-9.1,3.4-2.4,8.3-3.7,14.6-3.7l-.2.1ZM732.8,271.61c0,2.5.8,4.6,2.3,6.3,1.6,1.8,3.5,2.6,5.9,2.6,3.7,0,7.6-1.8,11.7-5.5v-19.9c-5.1,2.1-9.1,4-11.8,5.5-2.8,1.6-4.8,3.2-6.1,4.9s-2,3.7-2,6v.1Z" vector-effect="non-scaling-stroke"/>
      <path class="cls-5" d="M849.5,208.31c3.9,0,7.4.4,10.4,1.1s5.9,1.7,8.9,2.8c2.1.8,3.4,1.2,3.8,1.2.9,0,1.6-.4,2.3-1.3.7-.9,1.1-2.2,1.2-3.8h2.1l2,24h-2c-1-4.2-3-7.7-5.9-10.7s-6.3-5.3-10.2-6.8-7.8-2.3-11.8-2.3-10.5,1.4-15.1,4.1c-4.6,2.7-8.3,6.7-11.1,12.1-2.8,5.3-4.2,11.6-4.2,19s1.4,12.9,4.3,18.2c2.9,5.3,6.8,9.5,11.7,12.4,4.9,3,10.3,4.4,16,4.4s5.9-.4,8.6-1.2c2.6-.8,5.4-2.3,8.3-4.2v-21.7c0-3.2-.8-5.5-2.5-6.7-1.7-1.3-4.3-2-8-2v-2h32.3v2c-2.7.2-4.7.6-6.1,1.2-1.3.6-2.3,1.6-3,3.1-.6,1.5-.9,3.7-.9,6.6v21.4c-5.3,2.9-10.1,5-14.2,6.1-4.2,1.2-9.3,1.7-15.3,1.7-9.5,0-17.6-1.8-24.4-5.5-6.8-3.7-11.9-8.3-15.3-14-3.4-5.7-5.2-11.5-5.2-17.5s1.9-14.6,5.7-20.9c3.8-6.4,9.1-11.4,15.7-15.1s13.9-5.6,21.9-5.6v-.1Z" vector-effect="non-scaling-stroke"/>
      <path class="cls-5" d="M923.2,233.31c4.3,0,8.3,1.2,12.1,3.5,3.8,2.3,6.8,5.4,9,9.2s3.3,7.9,3.3,12.3-1.2,9.9-3.6,14.2c-2.4,4.4-5.6,7.9-9.7,10.5s-8.4,3.9-13,3.9-8.5-1.1-12.2-3.4c-3.8-2.3-6.7-5.4-8.9-9.3-2.2-3.9-3.3-8.2-3.3-12.8s1.2-9.6,3.6-13.9c2.4-4.3,5.7-7.7,9.7-10.3s8.4-3.8,13-3.8v-.1ZM906.8,256.91c0,4.3.7,8.5,2,12.4,1.4,4,3.3,7.2,5.9,9.8,2.6,2.6,5.6,3.8,9.2,3.8s7.5-1.8,10.1-5.5,3.8-8.6,3.8-14.6-.7-9.2-2.2-13.1c-1.5-3.9-3.5-7-6.1-9.3s-5.6-3.4-9-3.4-7.5,1.8-10,5.4c-2.5,3.6-3.7,8.4-3.7,14.5h0Z" vector-effect="non-scaling-stroke"/>
      <path d="M343,313.21h11.8c2.8,0,5.3.5,7.5,1.6s3.8,2.6,5,4.5c1.2,2,1.8,4.2,1.8,6.8s-.6,4.9-1.8,6.8c-1.2,2-2.9,3.5-5,4.5-2.2,1.1-4.7,1.6-7.5,1.6h-11.8v-25.9.1ZM354.4,334.21c2.6,0,4.7-.7,6.2-2.2,1.5-1.4,2.3-3.4,2.3-5.9s-.8-4.4-2.3-5.9c-1.5-1.4-3.6-2.2-6.2-2.2h-5.5v16.1h5.5v.1Z" vector-effect="non-scaling-stroke"/>
      <path d="M380.8,319.21h5.8v19.9h-5.8v-19.9ZM383.7,316.51c-1.1,0-1.9-.3-2.6-.9-.7-.6-1-1.4-1-2.3s.3-1.7,1-2.3,1.5-.9,2.6-.9,1.9.3,2.6.9c.7.6,1,1.3,1,2.2s-.3,1.8-1,2.4c-.7.6-1.5.9-2.6.9h0Z" vector-effect="non-scaling-stroke"/>
      <path d="M406.3,339.51c-1.7,0-3.3-.2-4.9-.6-1.6-.4-2.8-.9-3.8-1.5l1.9-4.2c.9.6,2,1,3.2,1.4,1.3.4,2.5.5,3.7.5,2.4,0,3.7-.6,3.7-1.8s-.3-1-1-1.2-1.7-.5-3.1-.6c-1.6-.2-3-.5-4-.8-1.1-.3-2-.9-2.8-1.7s-1.2-2-1.2-3.5.4-2.4,1.1-3.3c.7-1,1.8-1.7,3.2-2.3,1.4-.5,3-.8,4.9-.8s2.8.2,4.2.5,2.5.7,3.5,1.3l-1.9,4.1c-1.8-1-3.7-1.5-5.7-1.5s-2.2.2-2.8.5-.9.8-.9,1.3.3,1,1,1.3c.7.2,1.7.5,3.2.7,1.6.3,3,.6,4,.9s1.9.9,2.7,1.7,1.2,1.9,1.2,3.4-.4,2.3-1.1,3.3c-.7,1-1.8,1.7-3.2,2.2s-3.1.8-5,.8l-.1-.1Z" vector-effect="non-scaling-stroke"/>
      <path d="M436.5,339.51c-2.1,0-4-.4-5.7-1.3-1.7-.9-3-2.1-4-3.6-1-1.6-1.4-3.3-1.4-5.3s.5-3.8,1.4-5.3,2.3-2.8,4-3.6c1.7-.9,3.6-1.3,5.7-1.3s3.9.4,5.5,1.3c1.6.9,2.7,2.1,3.4,3.7l-4.5,2.4c-1-1.8-2.5-2.7-4.5-2.7s-2.8.5-3.7,1.5c-1,1-1.5,2.3-1.5,4s.5,3.1,1.5,4c1,1,2.2,1.5,3.7,1.5s3.5-.9,4.5-2.7l4.5,2.4c-.7,1.6-1.9,2.8-3.4,3.7-1.6.9-3.4,1.3-5.5,1.3h0Z" vector-effect="non-scaling-stroke"/>
      <path d="M465.7,339.51c-2.1,0-4-.4-5.7-1.3-1.7-.9-3-2.1-3.9-3.6-.9-1.6-1.4-3.3-1.4-5.3s.5-3.8,1.4-5.3,2.2-2.8,3.9-3.6c1.7-.9,3.5-1.3,5.7-1.3s4,.4,5.6,1.3c1.7.9,2.9,2.1,3.9,3.6.9,1.6,1.4,3.3,1.4,5.3s-.5,3.7-1.4,5.3-2.2,2.8-3.9,3.6c-1.7.9-3.5,1.3-5.6,1.3ZM465.7,334.71c1.5,0,2.7-.5,3.7-1.5.9-1,1.4-2.3,1.4-4s-.5-3-1.4-4c-1-1-2.2-1.5-3.7-1.5s-2.7.5-3.7,1.5-1.4,2.3-1.4,4,.5,3,1.4,4,2.2,1.5,3.7,1.5Z" vector-effect="non-scaling-stroke"/>
      <path d="M507.3,319.31l-8.4,19.9h-6l-8.4-19.9h6l5.5,13.6,5.7-13.6h5.6Z" vector-effect="non-scaling-stroke"/>
      <path d="M536.3,329.31s0,.6-.1,1.6h-15.1c.3,1.2.9,2.2,1.9,2.9s2.3,1.1,3.8,1.1,2-.2,2.7-.5c.8-.3,1.6-.8,2.2-1.5l3.1,3.3c-1.9,2.1-4.6,3.2-8.2,3.2s-4.2-.4-6-1.3c-1.7-.9-3.1-2.1-4-3.6-.9-1.6-1.4-3.3-1.4-5.3s.5-3.7,1.4-5.3,2.2-2.8,3.8-3.7,3.4-1.3,5.4-1.3,3.7.4,5.3,1.3c1.6.8,2.8,2,3.7,3.6s1.3,3.4,1.3,5.4l.2.1ZM526,323.31c-1.3,0-2.4.4-3.3,1.1-.9.7-1.4,1.8-1.6,3h9.8c-.2-1.3-.7-2.3-1.6-3-.9-.8-2-1.1-3.2-1.1h-.1Z" vector-effect="non-scaling-stroke"/>
      <path d="M553.4,321.91c.7-1,1.6-1.7,2.8-2.2s2.5-.7,4.1-.7v5.3h-1.3c-1.7,0-3,.5-3.9,1.4s-1.4,2.3-1.4,4.2v9.4h-5.8v-19.9h5.5v2.6-.1Z" vector-effect="non-scaling-stroke"/>
      <path d="M607,333.61h-12l-2.3,5.6h-6.2l11.6-25.9h5.9l11.6,25.9h-6.3l-2.3-5.6ZM605.1,329.11l-4.1-9.9-4.1,9.9h8.2,0Z" vector-effect="non-scaling-stroke"/>
      <path d="M632.1,339.51c-1.7,0-3.3-.2-4.9-.6-1.6-.4-2.8-.9-3.8-1.5l1.9-4.2c.9.6,2,1,3.2,1.4,1.3.4,2.5.5,3.7.5,2.4,0,3.7-.6,3.7-1.8s-.3-1-1-1.2-1.7-.5-3.1-.6c-1.6-.2-3-.5-4-.8-1.1-.3-2-.9-2.8-1.7s-1.2-2-1.2-3.5.4-2.4,1.1-3.3c.7-1,1.8-1.7,3.2-2.3,1.4-.5,3-.8,4.9-.8s2.8.2,4.2.5,2.5.7,3.5,1.3l-1.9,4.1c-1.8-1-3.7-1.5-5.7-1.5s-2.2.2-2.8.5-.9.8-.9,1.3.3,1,1,1.3c.7.2,1.7.5,3.2.7,1.6.3,3,.6,4,.9s1.9.9,2.7,1.7,1.2,1.9,1.2,3.4-.4,2.3-1.1,3.3c-.7,1-1.8,1.7-3.2,2.2s-3.1.8-5,.8l-.1-.1Z" vector-effect="non-scaling-stroke"/>
      <path d="M652.7,319.21h5.8v19.9h-5.8v-19.9ZM655.6,316.51c-1.1,0-1.9-.3-2.6-.9-.7-.6-1-1.4-1-2.3s.3-1.7,1-2.3,1.5-.9,2.6-.9,1.9.3,2.6.9c.7.6,1,1.3,1,2.2s-.3,1.8-1,2.4c-.7.6-1.5.9-2.6.9h0Z" vector-effect="non-scaling-stroke"/>
      <path d="M679.5,319.01c3.1,0,5.5.7,7.1,2.2,1.7,1.5,2.5,3.7,2.5,6.6v11.4h-5.4v-2.5c-1.1,1.8-3.1,2.8-6.1,2.8s-2.9-.3-4-.8-2-1.2-2.6-2.2c-.6-.9-.9-1.9-.9-3.1,0-1.8.7-3.3,2.1-4.4,1.4-1.1,3.5-1.6,6.5-1.6h4.6c0-1.3-.4-2.2-1.2-2.9s-1.9-1-3.4-1-2.1.2-3.1.5-1.9.8-2.6,1.3l-2.1-4c1.1-.8,2.4-1.4,3.9-1.8,1.5-.4,3.1-.6,4.7-.6v.1ZM679.1,335.61c1,0,1.9-.2,2.6-.7.8-.5,1.3-1.1,1.6-2v-2h-4c-2.4,0-3.6.8-3.6,2.3s.3,1.3.9,1.8c.6.4,1.4.6,2.4.6h.1Z" vector-effect="non-scaling-stroke"/>
      <path d="M739.9,319.31l-9,21.2c-.9,2.3-2.1,3.9-3.4,4.8-1.3.9-3,1.4-4.9,1.4s-2.1-.2-3.1-.5-1.8-.8-2.5-1.3l2.1-4.1c.4.4.9.7,1.5.9s1.2.3,1.7.3,1.4-.2,1.9-.6c.5-.4.9-1,1.3-1.9v-.2l-8.6-20.1h6l5.6,13.5,5.6-13.5h5.6l.2.1Z" vector-effect="non-scaling-stroke"/>
      <path d="M758.8,339.51c-2.1,0-4-.4-5.7-1.3-1.7-.9-3-2.1-3.9-3.6-.9-1.6-1.4-3.3-1.4-5.3s.5-3.8,1.4-5.3,2.2-2.8,3.9-3.6c1.7-.9,3.5-1.3,5.7-1.3s4,.4,5.6,1.3c1.7.9,2.9,2.1,3.9,3.6.9,1.6,1.4,3.3,1.4,5.3s-.5,3.7-1.4,5.3-2.2,2.8-3.9,3.6c-1.7.9-3.5,1.3-5.6,1.3ZM758.8,334.71c1.5,0,2.7-.5,3.7-1.5.9-1,1.4-2.3,1.4-4s-.5-3-1.4-4c-1-1-2.2-1.5-3.7-1.5s-2.7.5-3.7,1.5-1.4,2.3-1.4,4,.5,3,1.4,4,2.2,1.5,3.7,1.5Z" vector-effect="non-scaling-stroke"/>
      <path d="M801.3,319.31v19.9h-5.5v-2.4c-.8.9-1.7,1.5-2.7,2-1.1.4-2.2.7-3.4.7-2.6,0-4.7-.7-6.2-2.2s-2.3-3.7-2.3-6.7v-11.3h5.8v10.4c0,3.2,1.3,4.8,4,4.8s2.5-.4,3.3-1.3c.8-.9,1.3-2.2,1.3-4v-9.9h5.8-.1Z" vector-effect="non-scaling-stroke"/>
      <path d="M819.9,321.91c.7-1,1.6-1.7,2.8-2.2s2.5-.7,4.1-.7v5.3h-1.3c-1.7,0-3,.5-3.9,1.4s-1.4,2.3-1.4,4.2v9.4h-5.8v-19.9h5.5v2.6-.1Z" vector-effect="non-scaling-stroke"/>
      <path d="M888.1,319.31l-7.2,19.9h-5.6l-4.5-12.4-4.6,12.4h-5.6l-7.2-19.9h5.4l4.7,13.5,4.9-13.5h4.9l4.7,13.5,4.9-13.5h5.2Z" vector-effect="non-scaling-stroke"/>
      <path d="M905.9,319.01c3.1,0,5.5.7,7.1,2.2,1.7,1.5,2.5,3.7,2.5,6.6v11.4h-5.4v-2.5c-1.1,1.8-3.1,2.8-6.1,2.8s-2.9-.3-4-.8-2-1.2-2.6-2.2c-.6-.9-.9-1.9-.9-3.1,0-1.8.7-3.3,2.1-4.4,1.4-1.1,3.5-1.6,6.5-1.6h4.6c0-1.3-.4-2.2-1.2-2.9s-1.9-1-3.4-1-2.1.2-3.1.5-1.9.8-2.6,1.3l-2.1-4c1.1-.8,2.4-1.4,3.9-1.8,1.5-.4,3.1-.6,4.7-.6v.1ZM905.4,335.61c1,0,1.9-.2,2.6-.7.8-.5,1.3-1.1,1.6-2v-2h-4c-2.4,0-3.6.8-3.6,2.3s.3,1.3.9,1.8c.6.4,1.4.6,2.4.6h.1Z" vector-effect="non-scaling-stroke"/>
      <path d="M947.7,319.31l-9,21.2c-.9,2.3-2.1,3.9-3.4,4.8-1.3.9-3,1.4-4.9,1.4s-2.1-.2-3.1-.5-1.8-.8-2.5-1.3l2.1-4.1c.4.4.9.7,1.5.9s1.2.3,1.7.3,1.4-.2,1.9-.6c.5-.4.9-1,1.3-1.9v-.2l-8.6-20.1h6l5.6,13.5,5.6-13.5h5.6l.2.1Z" vector-effect="non-scaling-stroke"/>
      <path class="cls-6" d="M230.3,0h8.2c53.2-.4,101.5,13.7,150.1,34.8,2.5,1.1,4.9,2.1,7.4,3.2,13.8,5.9,27.5,12.1,41,18.8l2.7,1.3c10.3,5.1,20.5,10.3,30.5,15.8,4.9,2.7,9.8,5.2,14.8,7.7,6.9,3.4,13.5,7.1,20.2,10.9,5.5,3.2,11.1,6.3,16.8,9.3,5.6,3,11,6.1,16.4,9.4,4.3,2.6,8.7,5.1,13.1,7.6,9,5.1,17.7,10.5,26.4,16l-1.7.8c-1.27-.47-2.7-1.07-4.3-1.8-.9-.4-1.8-.8-2.7-1.3l-3-1.4c-35.5-16.2-72.7-24.6-111.7-24.8h-2.9c-7.6,0-14.7.6-21.5,4.3-1,.6-2,1.4-3,2.4s-1.4,2.5-1.2,4.5c.7,5.1,3.1,8.6,6.1,12.8,21.5,27.8,59,44,90.4,57.5v.8c-7,.3-13.1-.4-19.9-2.4l-2.8-.8c-24.1-6.9-47.3-16-67.6-30.8l-1.5-1.1c-12-8.7-22.8-19.2-32.5-30.4-7-8-14.3-15.9-24.2-20.2-6-1-12-1.3-17.9.4-12.7,7.7-21.4,19.6-30,31.5l-2.7,3.7c-2.3,3.1-4.5,6.3-6.8,9.4-1.3,1.8-2.5,3.5-3.8,5.3-5.3,7.3-10,14.8-14.5,22.6-2.4,4.2-4.9,8.2-7.8,12.1-.53-1.67-.63-3.37-.3-5.1.3-1.1.6-2.2.9-3.3l.5-1.8c2.9-9.3,7.1-18.2,11.3-27.1l.9-1.9c7.1-15.3,15.9-29.7,26.4-42.8l2-2.5c3.5-4.4,7.2-8.7,11.1-12.8,1.2-1.3,2.4-2.7,3.6-4.1,4.8-5.6,10.2-10.3,15.8-15,2.1-1.7,4.1-3.5,6.2-5.2,2-1.7,4.1-3.5,6.1-5.2,0-1.07-.27-2.17-.8-3.3-1.8-1.2-3.7-2.3-5.7-3.3l-1.8-.9c-6.9-3.2-14.1-5.1-21.5-6.6l-2.2-.5c-12.3-2.6-24.1-3.3-36.7-2.8.9,2.3,1.8,4.3,3,6.5,2.9,6.3,2.2,13.8,2.2,20.6v30.6c0,10.2-.97,17.03-2.9,20.5-1.6,2.2-3.3,3.6-5.7,4.9-2.7,1.1-4.8,1.6-7.8,1.3-1.3-.3-2.5-.6-3.7-1-1.27-.4-2.93-.53-5-.4-2.8,13.1-4.4,26.2-5.8,39.4-.6,5.8-1.2,11.6-1.9,17.3l-.2,1.7c-1,9.4-2.2,18.8-3.5,28.2l-.2,1.7c-1,7.13-2.37,12.23-4.1,15.3-2.9,3-6.9,3.9-10.8,5-23.1,6.3-48,5.9-71.7,6.6h-1.9c-23.7.7-47.4.9-71.2.9h-7.6c-15.4,0-30.8,0-46.1-.4-1.7,0-3.4,0-5.1-.1-12.3-.4-23.9-1.4-35.1-7.1-4.4-2.8-7.3-7.1-9.8-11.5-1.1-2.4-1.8-4.9-2.5-7.5l-.5-1.8c-4.7-19.2-3.1-40.8-2.9-60.5v-6.1c0-21.6,3.6-43.7,9.9-64.3l.8-2.7c7.6-25.67,13.83-40.83,18.7-45.5,14.9-11.8,36.4-16.8,54.8-19.7l3.8-.6c3.5-.6,7.1-1.1,10.6-1.7,2.5-.4,5-.8,7.5-1.2,18.9-3,37.9-5.8,56.9-8.2l1.9-.2c4.4-.5,8.8-1.1,13.2-1.5l2.1-.2c14.9-1.6,29.7-1.7,44.7-1.7M130.4,29.21l-1.9.2c-11.6,1.5-22.8,4.2-34.1,7.2l-2.3.6c-8.4,2.3-16.7,4.8-24.9,7.5l-2.2.7c-12.7,4.3-24.7,11.2-33.9,21.1-2.7,3.5-5.1,7.1-7.5,10.8l-1.8,2.7c-4.6,7.5-7.4,15.3-9.8,23.8l-.7,2.2c-1.7,5.5-2.2,10.5-2.1,16.2v2.5c.3,12.5,2.8,24.9,9,35.9,3.5,5.1,8.4,8.6,13.8,11.3,8.2,3.3,17.6,3.4,26.3,3.6h3.1c12.9.4,25.9.5,38.8.5s5.7,0,8.6,0c24.6,0,49.4,0,73.8-3.7l1.8-.3c20.1-2.9,40-8,56.3-20.7l2.5-2c.8-.6,1.5-1.2,2.3-1.8,9.6-8.2,16.6-19,21.1-30.7.9-2.7,1.6-5.3,2.3-8.1l.7-2.9c3.6-16.4,4.5-35.4-.6-51.6-2.1-5.8-4.6-11.8-9.3-15.9-9.3-7.1-20-10.7-31.5-12.2-9-.8-18.2-.6-27.2-.5h-7.1c-21.2,0-42.4.8-63.5,3.5" vector-effect="non-scaling-stroke"/>
      <g class="cls-7">
        <path class="cls-3" d="M259.5,255.81c3,2.4,5.3,5,7,8.5,1.2,3.7,1.1,7.4.7,11.3-1.1,3.3-2.3,4.8-4.8,7.3-6,4.2-13.2,4.1-20.3,4.8l-1.7.2c-17.6,1.6-35.4,2.8-53.1,3h-6.2c-1.9-.3-3.3-.9-5-1.9-.4-5.3,1-9.6,2.7-14.6l.8-2.3c1-3,2.2-5.9,3.6-8.8,2.9-2.3,5.6-2.4,9.2-2.9,4.7-.6,9.4-1,14.1-1.4l3.1-.3c2.7-.2,5.4-.5,8.2-.7,3.8-.3,7.7-.6,11.5-1,2-.2,4.1-.3,6.1-.5,4-.3,8.1-.7,12.1-1.1,5.67-.67,9.7-.47,12.1.6M15.2,256.41h2c7.7.1,15.3.8,22.9,1.5,2.5.2,4.9.4,7.4.7,1.6.1,3.2.3,4.7.4l2.2.2c3.8.4,7.2.8,10.7,2.3,3.6,5.6,4.9,14.2,5.8,20.7-.13,1.53-.4,2.9-.8,4.1l-1.7,1.7c-2.2.2-4.3.2-6.5.2h-2c-7.2-.1-14.3-.7-21.4-1.5-2.2-.2-4.4-.4-6.6-.6-13.67-1.33-22.3-3-25.9-5-2.2-1.6-3.5-3.2-4.8-5.6-1-2.5-1.6-4.7-1.5-7.5.6-3,1.7-5.2,3.5-7.6,3.8-3.8,6.7-4.1,12-4" vector-effect="non-scaling-stroke"/>
      </g>
      <path class="cls-6" d="M85.3,78.51c13.8-.2,24.7,3.8,37,9.7,1.5.7,3,1.4,4.5,2.1,3.7,1.8,7.4,3.6,11.2,5.4,1.9.9,3.9,1.9,5.8,2.8,4.3,2.1,8.7,4.2,13,6.3,12.2,6,24.6,11.7,37.1,17.2l3.3,1.5c2.1.9,4.3,1.9,6.4,2.8l2.9,1.3,2.6,1.1c2,1,3.2,1.9,4.6,3.6-18.5.8-30.8-4-47.2-12.1-5.2-2.6-10.5-5-15.8-7.4l-2.5-1.1c-3.3-1.5-6.7-3-10-4.6-10.8-4.9-21.5-10-32.1-15.3-.5-.3-1-.5-1.6-.8-6.8-3.4-13.5-7.1-20.1-11l.8-1.7.1.2ZM113.1,90.91l-1.4.9c3,2.5,6.4,4.1,9.9,5.8l1.9.9c3.2,1.6,5.8,2.6,9.4,2.6l2.8-.2c-.47-1.6-1.3-3.27-2.5-5-4.8-3.5-10.2-4.8-16-5.8-1.47-.13-2.87.1-4.2.7M140.8,101.71v3.3l4.1.8c.33-1.07.6-2.17.8-3.3l-.8-.8h-4.1" vector-effect="non-scaling-stroke"/>
      <g class="cls-2">
        <path class="cls-4" d="M567.5,128.41c4.8,1.2,8.4,3.8,12.4,6.6l-1.7.8c-1.9-.7-3.7-1.6-5.5-2.4l-3-1.4-2.3-1.1v-2.5h.1ZM580,135.91l1.7.8-1.7-.8Z" vector-effect="non-scaling-stroke"/>
      </g>
    </g>
  </g>
</svg>