<?xml version="1.0" encoding="UTF-8" standalone="no" ?>
<!DOCTYPE svg PUBLIC "-//W3C//DTD SVG 1.1//EN" "http://www.w3.org/Graphics/SVG/1.1/DTD/svg11.dtd">
<svg xmlns="http://www.w3.org/2000/svg" xmlns:xlink="http://www.w3.org/1999/xlink" version="1.1" width="1139" height="1000" viewBox="0 0 1139 1000" xml:space="preserve">
<desc>Created with Fabric.js 5.2.4</desc>
<defs>
</defs>
<rect x="0" y="0" width="100%" height="100%" fill="transparent"></rect>
<g transform="matrix(0 0 0 0 0 0)" id="4052a327-c58d-4e4e-b0c9-c2fed9abc97a"  >
</g>
<g transform="matrix(1 0 0 1 569.5 500)" id="f912f7a5-7085-46c0-beda-042c4a13c365"  >
<rect style="stroke: none; stroke-width: 1; stroke-dasharray: none; stroke-linecap: butt; stroke-dashoffset: 0; stroke-linejoin: miter; stroke-miterlimit: 4; fill: rgb(255,255,255); fill-rule: nonzero; opacity: 1; visibility: hidden;" vector-effect="non-scaling-stroke"  x="-569.5" y="-500" rx="0" ry="0" width="1139" height="1000" />
</g>
<g transform="matrix(1.23 0 0 0.51 569.5 528.96)" clip-path="url(#CLIPPATH_40)"  >
<clipPath id="CLIPPATH_40" >
	<path transform="matrix(1 0 0 1 0 0) translate(-426.75, -426.75)" d="M 0 0 L 853.5 0 L 853.5 853.5 L 0 853.5 Z M 0 0" stroke-linecap="round" />
</clipPath>
<path style="stroke: none; stroke-width: 1; stroke-dasharray: none; stroke-linecap: butt; stroke-dashoffset: 0; stroke-linejoin: miter; stroke-miterlimit: 4; fill: rgb(255,255,255); fill-rule: nonzero; opacity: 1;" vector-effect="non-scaling-stroke"  transform=" translate(-426.75, -426.75)" d="M 0 0 L 853.5 0 L 853.5 853.5 L 0 853.5 Z M 0 0" stroke-linecap="round" />
</g>
<g transform="matrix(1.23 0 0 1.23 483.53 589.91)" clip-path="url(#CLIPPATH_41)"  >
<clipPath id="CLIPPATH_41" >
	<rect transform="matrix(1 0 0 1 218.27 10.92)" id="eaef1d406a" x="-250" y="-46.5" rx="0" ry="0" width="500" height="93" />
</clipPath>
<path style="stroke: none; stroke-width: 1; stroke-dasharray: none; stroke-linecap: butt; stroke-dashoffset: 0; stroke-linejoin: miter; stroke-miterlimit: 4; fill: rgb(150,132,59); fill-rule: nonzero; opacity: 1;" vector-effect="non-scaling-stroke"  transform=" translate(-30.09, 30.59)" d="M 56.359375 -48 L 54.671875 -48 C 54.253906 -51.4375 52.992188 -53.984375 50.890625 -55.640625 C 48.785156 -57.304688 45.59375 -58.140625 41.3125 -58.140625 L 22 -58.140625 L 22 -34.015625 L 37.125 -34.015625 C 40.332031 -34.015625 42.570312 -34.59375 43.84375 -35.75 C 45.125 -36.90625 45.765625 -38.734375 45.765625 -41.234375 L 45.765625 -42.65625 L 47.375 -42.65625 L 47.375 -21.8125 L 45.765625 -21.8125 L 45.765625 -22.890625 C 45.765625 -25.492188 45.140625 -27.40625 43.890625 -28.625 C 42.648438 -29.84375 40.691406 -30.453125 38.015625 -30.453125 L 22 -30.453125 L 22 -8.90625 C 22 -6.050781 22.707031 -4.117188 24.125 -3.109375 C 25.550781 -2.109375 27.78125 -1.609375 30.8125 -1.609375 L 30.8125 0 L 3.828125 0 L 3.828125 -1.609375 L 4.359375 -1.609375 C 7.035156 -1.609375 9.039062 -2.15625 10.375 -3.25 C 11.707031 -4.34375 12.375 -6.257812 12.375 -9 L 12.375 -52.625 C 12.375 -55.113281 11.691406 -56.894531 10.328125 -57.96875 C 8.960938 -59.039062 6.796875 -59.578125 3.828125 -59.578125 L 3.828125 -61.171875 L 55.75 -61.171875 Z M 56.359375 -48" stroke-linecap="round" />
</g>
<g transform="matrix(1.23 0 0 1.23 550.27 602.98)" clip-path="url(#CLIPPATH_42)"  >
<clipPath id="CLIPPATH_42" >
	<rect transform="matrix(1 0 0 1 164.22 0.36)" id="eaef1d406a" x="-250" y="-46.5" rx="0" ry="0" width="500" height="93" />
</clipPath>
<path style="stroke: none; stroke-width: 1; stroke-dasharray: none; stroke-linecap: butt; stroke-dashoffset: 0; stroke-linejoin: miter; stroke-miterlimit: 4; fill: rgb(150,132,59); fill-rule: nonzero; opacity: 1;" vector-effect="non-scaling-stroke"  transform=" translate(-24.76, 20.03)" d="M 16.390625 -11.75 C 16.390625 -9.613281 17.039062 -7.863281 18.34375 -6.5 C 19.644531 -5.132812 21.25 -4.453125 23.15625 -4.453125 C 24.875 -4.453125 26.648438 -4.910156 28.484375 -5.828125 C 30.328125 -6.753906 32.082031 -8.109375 33.75 -9.890625 L 33.75 -34.546875 C 33.75 -37.992188 31.726562 -39.71875 27.6875 -39.71875 L 26.796875 -39.71875 L 26.796875 -41.3125 L 41.046875 -41.3125 L 41.046875 -9.609375 C 41.046875 -8.546875 41.359375 -7.460938 41.984375 -6.359375 C 42.609375 -5.265625 43.601562 -4.71875 44.96875 -4.71875 C 45.738281 -4.71875 46.71875 -4.957031 47.90625 -5.4375 L 47.90625 -3.734375 L 35.4375 1.0625 L 33.75 1.0625 L 33.75 -7.65625 L 33.578125 -7.65625 C 28.765625 -1.71875 24.128906 1.25 19.671875 1.25 C 17.421875 1.25 15.492188 0.671875 13.890625 -0.484375 C 12.285156 -1.640625 11.082031 -3.109375 10.28125 -4.890625 C 9.476562 -6.671875 9.078125 -8.484375 9.078125 -10.328125 L 9.078125 -33.84375 C 9.078125 -36.15625 8.554688 -37.710938 7.515625 -38.515625 C 6.484375 -39.316406 4.867188 -39.71875 2.671875 -39.71875 L 1.609375 -39.71875 L 1.609375 -41.3125 L 16.390625 -41.3125 Z M 16.390625 -11.75" stroke-linecap="round" />
</g>
<g transform="matrix(1.23 0 0 1.23 610.5 601.6)" clip-path="url(#CLIPPATH_43)"  >
<clipPath id="CLIPPATH_43" >
	<rect transform="matrix(1 0 0 1 115.43 1.48)" id="eaef1d406a" x="-250" y="-46.5" rx="0" ry="0" width="500" height="93" />
</clipPath>
<path style="stroke: none; stroke-width: 1; stroke-dasharray: none; stroke-linecap: butt; stroke-dashoffset: 0; stroke-linejoin: miter; stroke-miterlimit: 4; fill: rgb(150,132,59); fill-rule: nonzero; opacity: 1;" vector-effect="non-scaling-stroke"  transform=" translate(-24.4, 21.15)" d="M 15.9375 -33.578125 C 19.019531 -36.898438 21.539062 -39.179688 23.5 -40.421875 C 25.46875 -41.671875 27.640625 -42.296875 30.015625 -42.296875 C 32.617188 -42.296875 34.722656 -41.597656 36.328125 -40.203125 C 37.929688 -38.804688 39.085938 -37.097656 39.796875 -35.078125 C 40.515625 -33.066406 40.875 -31.082031 40.875 -29.125 L 40.875 -9.4375 C 40.875 -6.40625 41.347656 -4.367188 42.296875 -3.328125 C 43.242188 -2.296875 44.875 -1.722656 47.1875 -1.609375 L 47.1875 0 L 26.359375 0 L 26.359375 -1.609375 C 28.253906 -1.609375 29.707031 -1.8125 30.71875 -2.21875 C 31.726562 -2.632812 32.457031 -3.390625 32.90625 -4.484375 C 33.351562 -5.585938 33.578125 -7.238281 33.578125 -9.4375 L 33.578125 -29.46875 C 33.578125 -31.375 32.953125 -33.113281 31.703125 -34.6875 C 30.453125 -36.257812 28.726562 -37.046875 26.53125 -37.046875 C 24.695312 -37.046875 22.945312 -36.554688 21.28125 -35.578125 C 19.613281 -34.597656 17.832031 -33.097656 15.9375 -31.078125 L 15.9375 -9.4375 C 15.9375 -6.351562 16.441406 -4.289062 17.453125 -3.25 C 18.460938 -2.207031 20.210938 -1.660156 22.703125 -1.609375 L 22.703125 0 L 2.21875 0 L 2.21875 -1.609375 C 4.0625 -1.785156 5.425781 -2.109375 6.3125 -2.578125 C 7.207031 -3.054688 7.816406 -3.800781 8.140625 -4.8125 C 8.472656 -5.820312 8.640625 -7.273438 8.640625 -9.171875 L 8.640625 -31.34375 C 8.640625 -32.707031 8.34375 -33.894531 7.75 -34.90625 C 7.15625 -35.914062 6.203125 -36.421875 4.890625 -36.421875 C 4.296875 -36.421875 3.75 -36.316406 3.25 -36.109375 C 2.75 -35.898438 2.40625 -35.765625 2.21875 -35.703125 L 1.609375 -37.40625 L 14.421875 -42.296875 L 15.9375 -42.296875 Z M 15.9375 -33.578125" stroke-linecap="round" />
</g>
<g transform="matrix(1.23 0 0 1.23 641.16 627.81)" clip-path="url(#CLIPPATH_44)"  >
<clipPath id="CLIPPATH_44" >
	<rect transform="matrix(1 0 0 1 90.68 -19.67)" id="eaef1d406a" x="-250" y="-46.5" rx="0" ry="0" width="500" height="93" />
</clipPath>
<path style="stroke: none; stroke-width: 1; stroke-dasharray: none; stroke-linecap: butt; stroke-dashoffset: 0; stroke-linejoin: miter; stroke-miterlimit: 4; fill: rgb(150,132,59); fill-rule: nonzero; opacity: 1;" vector-effect="non-scaling-stroke"  transform=" translate(0, 0)" d="" stroke-linecap="round" />
</g>
<g transform="matrix(1.23 0 0 1.23 710.88 588.25)" clip-path="url(#CLIPPATH_45)"  >
<clipPath id="CLIPPATH_45" >
	<rect transform="matrix(1 0 0 1 34.09 12.25)" id="eaef1d406a" x="-250" y="-46.5" rx="0" ry="0" width="500" height="93" />
</clipPath>
<path style="stroke: none; stroke-width: 1; stroke-dasharray: none; stroke-linecap: butt; stroke-dashoffset: 0; stroke-linejoin: miter; stroke-miterlimit: 4; fill: rgb(150,132,59); fill-rule: nonzero; opacity: 1;" vector-effect="non-scaling-stroke"  transform=" translate(-34.33, 31.92)" d="M 10.234375 -11.84375 L 33.03125 -63.84375 L 34.640625 -63.84375 L 58.6875 -8.453125 C 59.570312 -6.441406 60.414062 -4.945312 61.21875 -3.96875 C 62.019531 -2.988281 62.863281 -2.347656 63.75 -2.046875 C 64.644531 -1.753906 65.863281 -1.609375 67.40625 -1.609375 L 67.40625 0 L 42.296875 0 L 42.296875 -1.609375 C 44.429688 -1.609375 46.03125 -1.992188 47.09375 -2.765625 C 48.164062 -3.535156 48.703125 -4.570312 48.703125 -5.875 C 48.703125 -7 48.316406 -8.394531 47.546875 -10.0625 L 42.921875 -20.5625 L 18.25 -20.5625 L 13.171875 -8.90625 C 12.578125 -7.71875 12.28125 -6.648438 12.28125 -5.703125 C 12.28125 -2.972656 14.476562 -1.609375 18.875 -1.609375 L 18.875 0 L 1.25 0 L 1.25 -1.609375 C 2.726562 -1.785156 3.925781 -2.210938 4.84375 -2.890625 C 5.769531 -3.578125 6.601562 -4.570312 7.34375 -5.875 C 8.082031 -7.1875 9.046875 -9.175781 10.234375 -11.84375 Z M 41.5 -23.953125 L 30.625 -48.796875 L 19.765625 -23.953125 Z M 41.5 -23.953125" stroke-linecap="round" />
</g>
<g transform="matrix(1.23 0 0 1.23 775.32 602.37)" clip-path="url(#CLIPPATH_46)"  >
<clipPath id="CLIPPATH_46" >
	<rect transform="matrix(1 0 0 1 -18.04 0.85)" id="eaef1d406a" x="-250" y="-46.5" rx="0" ry="0" width="500" height="93" />
</clipPath>
<path style="stroke: none; stroke-width: 1; stroke-dasharray: none; stroke-linecap: butt; stroke-dashoffset: 0; stroke-linejoin: miter; stroke-miterlimit: 4; fill: rgb(150,132,59); fill-rule: nonzero; opacity: 1;" vector-effect="non-scaling-stroke"  transform=" translate(-17.81, 20.52)" d="M 16.734375 -42.296875 C 18.460938 -42.296875 20.21875 -42 22 -41.40625 C 23.238281 -40.988281 24.242188 -40.78125 25.015625 -40.78125 C 25.554688 -40.78125 26.125 -40.957031 26.71875 -41.3125 L 28.3125 -41.3125 L 28.3125 -28.765625 L 26.71875 -28.765625 C 26.238281 -32.023438 25.078125 -34.675781 23.234375 -36.71875 C 21.398438 -38.769531 19.175781 -39.796875 16.5625 -39.796875 C 14.488281 -39.796875 12.78125 -39.289062 11.4375 -38.28125 C 10.101562 -37.28125 9.4375 -35.914062 9.4375 -34.1875 C 9.4375 -32.820312 9.804688 -31.648438 10.546875 -30.671875 C 11.296875 -29.691406 12.335938 -28.785156 13.671875 -27.953125 C 15.003906 -27.128906 17.097656 -25.972656 19.953125 -24.484375 C 23.628906 -22.523438 26.445312 -20.59375 28.40625 -18.6875 C 30.363281 -16.789062 31.34375 -14.242188 31.34375 -11.046875 C 31.34375 -8.191406 30.613281 -5.84375 29.15625 -4 C 27.707031 -2.164062 25.957031 -0.832031 23.90625 0 C 21.863281 0.832031 19.921875 1.25 18.078125 1.25 C 16.296875 1.25 13.890625 0.832031 10.859375 0 C 9.492188 -0.414062 8.578125 -0.625 8.109375 -0.625 C 7.335938 -0.625 6.800781 -0.414062 6.5 0 L 4.625 0 L 4.625 -13.890625 L 6.140625 -13.890625 C 6.554688 -10.210938 7.890625 -7.226562 10.140625 -4.9375 C 12.398438 -2.65625 15.078125 -1.515625 18.171875 -1.515625 C 20.003906 -1.515625 21.601562 -2.109375 22.96875 -3.296875 C 24.332031 -4.484375 25.015625 -5.96875 25.015625 -7.75 C 25.015625 -9.820312 24.421875 -11.453125 23.234375 -12.640625 C 22.046875 -13.828125 20.722656 -14.851562 19.265625 -15.71875 C 17.816406 -16.582031 16.859375 -17.128906 16.390625 -17.359375 C 16.148438 -17.535156 15.316406 -18.007812 13.890625 -18.78125 C 11.753906 -19.96875 10.046875 -21.019531 8.765625 -21.9375 C 7.492188 -22.863281 6.425781 -24.066406 5.5625 -25.546875 C 4.707031 -27.035156 4.28125 -28.878906 4.28125 -31.078125 C 4.28125 -34.398438 5.453125 -37.097656 7.796875 -39.171875 C 10.140625 -41.253906 13.117188 -42.296875 16.734375 -42.296875 Z M 16.734375 -42.296875" stroke-linecap="round" />
</g>
<g transform="matrix(1.23 0 0 1.23 810.56 588.09)" clip-path="url(#CLIPPATH_47)"  >
<clipPath id="CLIPPATH_47" >
	<rect transform="matrix(1 0 0 1 -46.57 12.39)" id="eaef1d406a" x="-250" y="-46.5" rx="0" ry="0" width="500" height="93" />
</clipPath>
<path style="stroke: none; stroke-width: 1; stroke-dasharray: none; stroke-linecap: butt; stroke-dashoffset: 0; stroke-linejoin: miter; stroke-miterlimit: 4; fill: rgb(150,132,59); fill-rule: nonzero; opacity: 1;" vector-effect="non-scaling-stroke"  transform=" translate(-12.06, 32.05)" d="M 12.109375 -64.109375 C 13.410156 -64.109375 14.503906 -63.660156 15.390625 -62.765625 C 16.285156 -61.878906 16.734375 -60.816406 16.734375 -59.578125 C 16.734375 -58.265625 16.285156 -57.160156 15.390625 -56.265625 C 14.503906 -55.378906 13.410156 -54.9375 12.109375 -54.9375 C 10.859375 -54.9375 9.785156 -55.378906 8.890625 -56.265625 C 8.003906 -57.160156 7.5625 -58.265625 7.5625 -59.578125 C 7.5625 -60.816406 8.003906 -61.878906 8.890625 -62.765625 C 9.785156 -63.660156 10.859375 -64.109375 12.109375 -64.109375 Z M 16.03125 -9.265625 C 16.03125 -6.347656 16.503906 -4.351562 17.453125 -3.28125 C 18.398438 -2.21875 19.941406 -1.660156 22.078125 -1.609375 L 22.078125 0 L 2.046875 0 L 2.046875 -1.609375 C 4.484375 -1.609375 6.207031 -2.171875 7.21875 -3.296875 C 8.226562 -4.421875 8.734375 -6.46875 8.734375 -9.4375 L 8.734375 -30.984375 C 8.734375 -32.585938 8.375 -33.894531 7.65625 -34.90625 C 6.945312 -35.914062 5.847656 -36.421875 4.359375 -36.421875 C 3.710938 -36.421875 3.117188 -36.269531 2.578125 -35.96875 L 2.046875 -37.578125 L 14.421875 -42.296875 L 16.03125 -42.296875 Z M 16.03125 -9.265625" stroke-linecap="round" />
</g>
<g transform="matrix(1.23 0 0 1.23 854.21 602.37)" clip-path="url(#CLIPPATH_48)"  >
<clipPath id="CLIPPATH_48" >
	<rect transform="matrix(1 0 0 1 -81.96 0.85)" id="eaef1d406a" x="-250" y="-46.5" rx="0" ry="0" width="500" height="93" />
</clipPath>
<path style="stroke: none; stroke-width: 1; stroke-dasharray: none; stroke-linecap: butt; stroke-dashoffset: 0; stroke-linejoin: miter; stroke-miterlimit: 4; fill: rgb(150,132,59); fill-rule: nonzero; opacity: 1;" vector-effect="non-scaling-stroke"  transform=" translate(-23.33, 20.52)" d="M 21.28125 -42.296875 C 30.1875 -42.296875 34.640625 -38.734375 34.640625 -31.609375 L 34.640625 -8.015625 C 34.640625 -6.410156 34.875 -5.351562 35.34375 -4.84375 C 35.820312 -4.34375 36.445312 -4.09375 37.21875 -4.09375 C 38.113281 -4.09375 38.945312 -4.34375 39.71875 -4.84375 C 40.488281 -5.351562 41.613281 -6.320312 43.09375 -7.75 L 43.09375 -5.515625 C 40.84375 -2.960938 38.988281 -1.195312 37.53125 -0.21875 C 36.082031 0.757812 34.582031 1.25 33.03125 1.25 C 31.3125 1.25 29.929688 0.640625 28.890625 -0.578125 C 27.859375 -1.796875 27.34375 -3.59375 27.34375 -5.96875 C 24.726562 -3.46875 22.304688 -1.640625 20.078125 -0.484375 C 17.847656 0.671875 15.429688 1.25 12.828125 1.25 C 10.210938 1.25 8.015625 0.269531 6.234375 -1.6875 C 4.453125 -3.644531 3.5625 -6.019531 3.5625 -8.8125 C 3.5625 -13.5625 6.082031 -17.242188 11.125 -19.859375 C 15.9375 -22.410156 21.34375 -24.753906 27.34375 -26.890625 L 27.34375 -29.390625 C 27.34375 -31.765625 27.175781 -33.660156 26.84375 -35.078125 C 26.519531 -36.503906 25.78125 -37.644531 24.625 -38.5 C 23.46875 -39.363281 21.703125 -39.796875 19.328125 -39.796875 C 17.003906 -39.796875 15.28125 -39.234375 14.15625 -38.109375 C 13.03125 -36.984375 12.46875 -35.585938 12.46875 -33.921875 L 12.5625 -31.609375 C 12.5625 -30.597656 12.234375 -29.765625 11.578125 -29.109375 C 10.921875 -28.460938 10.085938 -28.140625 9.078125 -28.140625 C 7.953125 -28.140625 7.03125 -28.460938 6.3125 -29.109375 C 5.601562 -29.765625 5.25 -30.6875 5.25 -31.875 C 5.25 -34.84375 6.644531 -37.320312 9.4375 -39.3125 C 12.226562 -41.300781 16.175781 -42.296875 21.28125 -42.296875 Z M 11.125 -11.125 C 11.125 -9.113281 11.757812 -7.394531 13.03125 -5.96875 C 14.3125 -4.539062 15.90625 -3.828125 17.8125 -3.828125 C 20.832031 -3.828125 24.007812 -5.3125 27.34375 -8.28125 L 27.34375 -24.484375 C 23.1875 -22.765625 19.976562 -21.265625 17.71875 -19.984375 C 15.46875 -18.710938 13.804688 -17.394531 12.734375 -16.03125 C 11.660156 -14.664062 11.125 -13.03125 11.125 -11.125 Z M 11.125 -11.125" stroke-linecap="round" />
</g>
<g transform="matrix(1.23 0 0 1.23 880.46 627.81)" clip-path="url(#CLIPPATH_49)"  >
<clipPath id="CLIPPATH_49" >
	<rect transform="matrix(1 0 0 1 -103.15 -19.67)" id="eaef1d406a" x="-250" y="-46.5" rx="0" ry="0" width="500" height="93" />
</clipPath>
<path style="stroke: none; stroke-width: 1; stroke-dasharray: none; stroke-linecap: butt; stroke-dashoffset: 0; stroke-linejoin: miter; stroke-miterlimit: 4; fill: rgb(150,132,59); fill-rule: nonzero; opacity: 1;" vector-effect="non-scaling-stroke"  transform=" translate(0, 0)" d="" stroke-linecap="round" />
</g>
<g transform="matrix(1.23 0 0 1.23 954.89 589.89)" clip-path="url(#CLIPPATH_50)"  >
<clipPath id="CLIPPATH_50" >
	<rect transform="matrix(1 0 0 1 -163.57 10.92)" id="eaef1d406a" x="-250" y="-46.5" rx="0" ry="0" width="500" height="93" />
</clipPath>
<path style="stroke: none; stroke-width: 1; stroke-dasharray: none; stroke-linecap: butt; stroke-dashoffset: 0; stroke-linejoin: miter; stroke-miterlimit: 4; fill: rgb(150,132,59); fill-rule: nonzero; opacity: 1;" vector-effect="non-scaling-stroke"  transform=" translate(-38.16, 30.59)" d="M 39 -62.515625 C 42.207031 -62.515625 45.015625 -62.21875 47.421875 -61.625 C 49.828125 -61.03125 52.242188 -60.257812 54.671875 -59.3125 C 56.390625 -58.65625 57.429688 -58.328125 57.796875 -58.328125 C 58.503906 -58.328125 59.125 -58.679688 59.65625 -59.390625 C 60.195312 -60.109375 60.523438 -61.148438 60.640625 -62.515625 L 62.328125 -62.515625 L 63.9375 -43.015625 L 62.328125 -43.015625 C 61.503906 -46.390625 59.90625 -49.296875 57.53125 -51.734375 C 55.15625 -54.171875 52.394531 -56.007812 49.25 -57.25 C 46.101562 -58.5 42.894531 -59.125 39.625 -59.125 C 35.175781 -59.125 31.082031 -58.007812 27.34375 -55.78125 C 23.601562 -53.5625 20.601562 -50.296875 18.34375 -45.984375 C 16.082031 -41.679688 14.953125 -36.535156 14.953125 -30.546875 C 14.953125 -25.023438 16.125 -20.097656 18.46875 -15.765625 C 20.820312 -11.429688 24 -8.0625 28 -5.65625 C 32.007812 -3.25 36.359375 -2.046875 41.046875 -2.046875 C 43.546875 -2.046875 45.863281 -2.382812 48 -3.0625 C 50.132812 -3.75 52.390625 -4.894531 54.765625 -6.5 L 54.765625 -24.125 C 54.765625 -26.738281 54.082031 -28.566406 52.71875 -29.609375 C 51.351562 -30.648438 49.1875 -31.195312 46.21875 -31.25 L 46.21875 -32.859375 L 72.484375 -32.859375 L 72.484375 -31.25 C 70.285156 -31.070312 68.632812 -30.742188 67.53125 -30.265625 C 66.4375 -29.796875 65.632812 -28.96875 65.125 -27.78125 C 64.625 -26.59375 64.375 -24.8125 64.375 -22.4375 L 64.375 -5.078125 C 60.039062 -2.703125 56.179688 -1.039062 52.796875 -0.09375 C 49.421875 0.851562 45.269531 1.328125 40.34375 1.328125 C 32.625 1.328125 26.003906 -0.148438 20.484375 -3.109375 C 14.960938 -6.078125 10.804688 -9.863281 8.015625 -14.46875 C 5.222656 -19.070312 3.828125 -23.804688 3.828125 -28.671875 C 3.828125 -34.847656 5.382812 -40.515625 8.5 -45.671875 C 11.613281 -50.835938 15.859375 -54.9375 21.234375 -57.96875 C 26.609375 -61 32.53125 -62.515625 39 -62.515625 Z M 39 -62.515625" stroke-linecap="round" />
</g>
<g transform="matrix(1.23 0 0 1.23 1028.71 602.37)" clip-path="url(#CLIPPATH_51)"  >
<clipPath id="CLIPPATH_51" >
	<rect transform="matrix(1 0 0 1 -223.31 0.85)" id="eaef1d406a" x="-250" y="-46.5" rx="0" ry="0" width="500" height="93" />
</clipPath>
<path style="stroke: none; stroke-width: 1; stroke-dasharray: none; stroke-linecap: butt; stroke-dashoffset: 0; stroke-linejoin: miter; stroke-miterlimit: 4; fill: rgb(150,132,59); fill-rule: nonzero; opacity: 1;" vector-effect="non-scaling-stroke"  transform=" translate(-24.62, 20.52)" d="M 25.375 -42.296875 C 28.875 -42.296875 32.148438 -41.359375 35.203125 -39.484375 C 38.265625 -37.617188 40.703125 -35.128906 42.515625 -32.015625 C 44.328125 -28.898438 45.234375 -25.5625 45.234375 -22 C 45.234375 -17.84375 44.253906 -13.984375 42.296875 -10.421875 C 40.335938 -6.859375 37.707031 -4.019531 34.40625 -1.90625 C 31.113281 0.195312 27.597656 1.25 23.859375 1.25 C 20.296875 1.25 16.984375 0.316406 13.921875 -1.546875 C 10.867188 -3.421875 8.453125 -5.945312 6.671875 -9.125 C 4.890625 -12.300781 4 -15.757812 4 -19.5 C 4 -23.539062 4.976562 -27.3125 6.9375 -30.8125 C 8.90625 -34.3125 11.535156 -37.097656 14.828125 -39.171875 C 18.117188 -41.253906 21.632812 -42.296875 25.375 -42.296875 Z M 12.015625 -23.0625 C 12.015625 -19.5625 12.5625 -16.191406 13.65625 -12.953125 C 14.757812 -9.722656 16.347656 -7.066406 18.421875 -4.984375 C 20.503906 -2.910156 23 -1.875 25.90625 -1.875 C 29.289062 -1.875 32.019531 -3.367188 34.09375 -6.359375 C 36.175781 -9.359375 37.21875 -13.320312 37.21875 -18.25 C 37.21875 -22.164062 36.625 -25.710938 35.4375 -28.890625 C 34.25 -32.066406 32.585938 -34.578125 30.453125 -36.421875 C 28.316406 -38.265625 25.882812 -39.1875 23.15625 -39.1875 C 19.769531 -39.1875 17.066406 -37.726562 15.046875 -34.8125 C 13.023438 -31.90625 12.015625 -27.988281 12.015625 -23.0625 Z M 12.015625 -23.0625" stroke-linecap="round" />
</g>
<g transform="matrix(1.23 0 0 1.23 462.39 668.5)" clip-path="url(#CLIPPATH_52)"  >
<clipPath id="CLIPPATH_52" >
	<rect transform="matrix(1 0 0 1 236.45 1.33)" x="-251" y="-18.5" rx="0" ry="0" width="502" height="37" />
</clipPath>
<path style="stroke: none; stroke-width: 1; stroke-dasharray: none; stroke-linecap: butt; stroke-dashoffset: 0; stroke-linejoin: miter; stroke-miterlimit: 4; fill: rgb(0,0,0); fill-rule: nonzero; opacity: 1;" vector-effect="non-scaling-stroke"  transform=" translate(-13.1, 10.54)" d="M 2.5 -21.078125 L 12.078125 -21.078125 C 14.359375 -21.078125 16.378906 -20.640625 18.140625 -19.765625 C 19.898438 -18.890625 21.265625 -17.660156 22.234375 -16.078125 C 23.210938 -14.492188 23.703125 -12.644531 23.703125 -10.53125 C 23.703125 -8.425781 23.210938 -6.582031 22.234375 -5 C 21.265625 -3.414062 19.898438 -2.1875 18.140625 -1.3125 C 16.378906 -0.4375 14.359375 0 12.078125 0 L 2.5 0 Z M 11.828125 -4 C 13.941406 -4 15.625 -4.585938 16.875 -5.765625 C 18.132812 -6.941406 18.765625 -8.53125 18.765625 -10.53125 C 18.765625 -12.539062 18.132812 -14.132812 16.875 -15.3125 C 15.625 -16.488281 13.941406 -17.078125 11.828125 -17.078125 L 7.375 -17.078125 L 7.375 -4 Z M 11.828125 -4" stroke-linecap="round" />
</g>
<g transform="matrix(1.23 0 0 1.23 490.09 666.88)" clip-path="url(#CLIPPATH_53)"  >
<clipPath id="CLIPPATH_53" >
	<rect transform="matrix(1 0 0 1 214.03 2.64)" x="-251" y="-18.5" rx="0" ry="0" width="502" height="37" />
</clipPath>
<path style="stroke: none; stroke-width: 1; stroke-dasharray: none; stroke-linecap: butt; stroke-dashoffset: 0; stroke-linejoin: miter; stroke-miterlimit: 4; fill: rgb(0,0,0); fill-rule: nonzero; opacity: 1;" vector-effect="non-scaling-stroke"  transform=" translate(-4.52, 11.85)" d="M 2.171875 -16.203125 L 6.859375 -16.203125 L 6.859375 0 L 2.171875 0 Z M 4.515625 -18.453125 C 3.648438 -18.453125 2.945312 -18.703125 2.40625 -19.203125 C 1.863281 -19.710938 1.59375 -20.335938 1.59375 -21.078125 C 1.59375 -21.816406 1.863281 -22.4375 2.40625 -22.9375 C 2.945312 -23.445312 3.648438 -23.703125 4.515625 -23.703125 C 5.378906 -23.703125 6.082031 -23.457031 6.625 -22.96875 C 7.164062 -22.488281 7.4375 -21.890625 7.4375 -21.171875 C 7.4375 -20.390625 7.164062 -19.738281 6.625 -19.21875 C 6.082031 -18.707031 5.378906 -18.453125 4.515625 -18.453125 Z M 4.515625 -18.453125" stroke-linecap="round" />
</g>
<g transform="matrix(1.23 0 0 1.23 513.07 671.52)" clip-path="url(#CLIPPATH_54)"  >
<clipPath id="CLIPPATH_54" >
	<rect transform="matrix(1 0 0 1 195.4 -1.11)" x="-251" y="-18.5" rx="0" ry="0" width="502" height="37" />
</clipPath>
<path style="stroke: none; stroke-width: 1; stroke-dasharray: none; stroke-linecap: butt; stroke-dashoffset: 0; stroke-linejoin: miter; stroke-miterlimit: 4; fill: rgb(0,0,0); fill-rule: nonzero; opacity: 1;" vector-effect="non-scaling-stroke"  transform=" translate(-7.94, 8.1)" d="M 7.625 0.234375 C 6.269531 0.234375 4.953125 0.0703125 3.671875 -0.25 C 2.390625 -0.582031 1.367188 -1 0.609375 -1.5 L 2.171875 -4.875 C 2.890625 -4.414062 3.757812 -4.039062 4.78125 -3.75 C 5.8125 -3.457031 6.816406 -3.3125 7.796875 -3.3125 C 9.785156 -3.3125 10.78125 -3.800781 10.78125 -4.78125 C 10.78125 -5.25 10.507812 -5.582031 9.96875 -5.78125 C 9.425781 -5.976562 8.59375 -6.148438 7.46875 -6.296875 C 6.144531 -6.492188 5.050781 -6.722656 4.1875 -6.984375 C 3.320312 -7.242188 2.570312 -7.703125 1.9375 -8.359375 C 1.3125 -9.023438 1 -9.972656 1 -11.203125 C 1 -12.222656 1.289062 -13.128906 1.875 -13.921875 C 2.46875 -14.710938 3.332031 -15.328125 4.46875 -15.765625 C 5.601562 -16.210938 6.941406 -16.4375 8.484375 -16.4375 C 9.628906 -16.4375 10.769531 -16.3125 11.90625 -16.0625 C 13.039062 -15.8125 13.976562 -15.46875 14.71875 -15.03125 L 13.15625 -11.6875 C 11.726562 -12.488281 10.171875 -12.890625 8.484375 -12.890625 C 7.484375 -12.890625 6.734375 -12.75 6.234375 -12.46875 C 5.734375 -12.1875 5.484375 -11.820312 5.484375 -11.375 C 5.484375 -10.875 5.753906 -10.523438 6.296875 -10.328125 C 6.835938 -10.128906 7.695312 -9.9375 8.875 -9.75 C 10.207031 -9.53125 11.296875 -9.296875 12.140625 -9.046875 C 12.984375 -8.796875 13.710938 -8.335938 14.328125 -7.671875 C 14.953125 -7.015625 15.265625 -6.09375 15.265625 -4.90625 C 15.265625 -3.90625 14.960938 -3.007812 14.359375 -2.21875 C 13.753906 -1.4375 12.875 -0.832031 11.71875 -0.40625 C 10.570312 0.0195312 9.207031 0.234375 7.625 0.234375 Z M 7.625 0.234375" stroke-linecap="round" />
</g>
<g transform="matrix(1.23 0 0 1.23 541.83 671.52)" clip-path="url(#CLIPPATH_55)"  >
<clipPath id="CLIPPATH_55" >
	<rect transform="matrix(1 0 0 1 172.11 -1.11)" x="-251" y="-18.5" rx="0" ry="0" width="502" height="37" />
</clipPath>
<path style="stroke: none; stroke-width: 1; stroke-dasharray: none; stroke-linecap: butt; stroke-dashoffset: 0; stroke-linejoin: miter; stroke-miterlimit: 4; fill: rgb(0,0,0); fill-rule: nonzero; opacity: 1;" vector-effect="non-scaling-stroke"  transform=" translate(-9.11, 8.1)" d="M 10 0.234375 C 8.269531 0.234375 6.71875 -0.117188 5.34375 -0.828125 C 3.96875 -1.535156 2.894531 -2.519531 2.125 -3.78125 C 1.351562 -5.050781 0.96875 -6.488281 0.96875 -8.09375 C 0.96875 -9.707031 1.351562 -11.144531 2.125 -12.40625 C 2.894531 -13.664062 3.96875 -14.648438 5.34375 -15.359375 C 6.71875 -16.078125 8.269531 -16.4375 10 -16.4375 C 11.707031 -16.4375 13.195312 -16.078125 14.46875 -15.359375 C 15.738281 -14.648438 16.664062 -13.632812 17.25 -12.3125 L 13.609375 -10.359375 C 12.765625 -11.835938 11.550781 -12.578125 9.96875 -12.578125 C 8.738281 -12.578125 7.722656 -12.175781 6.921875 -11.375 C 6.117188 -10.570312 5.71875 -9.476562 5.71875 -8.09375 C 5.71875 -6.707031 6.117188 -5.613281 6.921875 -4.8125 C 7.722656 -4.007812 8.738281 -3.609375 9.96875 -3.609375 C 11.570312 -3.609375 12.785156 -4.351562 13.609375 -5.84375 L 17.25 -3.859375 C 16.664062 -2.566406 15.738281 -1.5625 14.46875 -0.84375 C 13.195312 -0.125 11.707031 0.234375 10 0.234375 Z M 10 0.234375" stroke-linecap="round" />
</g>
<g transform="matrix(1.23 0 0 1.23 572.06 671.52)" clip-path="url(#CLIPPATH_56)"  >
<clipPath id="CLIPPATH_56" >
	<rect transform="matrix(1 0 0 1 147.63 -1.11)" x="-251" y="-18.5" rx="0" ry="0" width="502" height="37" />
</clipPath>
<path style="stroke: none; stroke-width: 1; stroke-dasharray: none; stroke-linecap: butt; stroke-dashoffset: 0; stroke-linejoin: miter; stroke-miterlimit: 4; fill: rgb(0,0,0); fill-rule: nonzero; opacity: 1;" vector-effect="non-scaling-stroke"  transform=" translate(-9.87, 8.1)" d="M 9.875 0.234375 C 8.164062 0.234375 6.632812 -0.117188 5.28125 -0.828125 C 3.925781 -1.535156 2.867188 -2.519531 2.109375 -3.78125 C 1.347656 -5.050781 0.96875 -6.488281 0.96875 -8.09375 C 0.96875 -9.707031 1.347656 -11.144531 2.109375 -12.40625 C 2.867188 -13.664062 3.925781 -14.648438 5.28125 -15.359375 C 6.632812 -16.078125 8.164062 -16.4375 9.875 -16.4375 C 11.582031 -16.4375 13.109375 -16.078125 14.453125 -15.359375 C 15.796875 -14.648438 16.847656 -13.664062 17.609375 -12.40625 C 18.378906 -11.144531 18.765625 -9.707031 18.765625 -8.09375 C 18.765625 -6.488281 18.378906 -5.050781 17.609375 -3.78125 C 16.847656 -2.519531 15.796875 -1.535156 14.453125 -0.828125 C 13.109375 -0.117188 11.582031 0.234375 9.875 0.234375 Z M 9.875 -3.609375 C 11.082031 -3.609375 12.070312 -4.015625 12.84375 -4.828125 C 13.613281 -5.640625 14 -6.726562 14 -8.09375 C 14 -9.457031 13.613281 -10.546875 12.84375 -11.359375 C 12.070312 -12.171875 11.082031 -12.578125 9.875 -12.578125 C 8.664062 -12.578125 7.671875 -12.171875 6.890625 -11.359375 C 6.109375 -10.546875 5.71875 -9.457031 5.71875 -8.09375 C 5.71875 -6.726562 6.109375 -5.640625 6.890625 -4.828125 C 7.671875 -4.015625 8.664062 -3.609375 9.875 -3.609375 Z M 9.875 -3.609375" stroke-linecap="round" />
</g>
<g transform="matrix(1.23 0 0 1.23 602.36 671.52)" clip-path="url(#CLIPPATH_57)"  >
<clipPath id="CLIPPATH_57" >
	<rect transform="matrix(1 0 0 1 123.08 -1.11)" x="-251" y="-18.5" rx="0" ry="0" width="502" height="37" />
</clipPath>
<path style="stroke: none; stroke-width: 1; stroke-dasharray: none; stroke-linecap: butt; stroke-dashoffset: 0; stroke-linejoin: miter; stroke-miterlimit: 4; fill: rgb(0,0,0); fill-rule: nonzero; opacity: 1;" vector-effect="non-scaling-stroke"  transform=" translate(-9.01, 8.1)" d="M 18.25 -16.203125 L 11.40625 0 L 6.5625 0 L -0.234375 -16.203125 L 4.609375 -16.203125 L 9.09375 -5.171875 L 13.734375 -16.203125 Z M 18.25 -16.203125" stroke-linecap="round" />
</g>
<g transform="matrix(1.23 0 0 1.23 632.21 671.52)" clip-path="url(#CLIPPATH_58)"  >
<clipPath id="CLIPPATH_58" >
	<rect transform="matrix(1 0 0 1 98.9 -1.11)" x="-251" y="-18.5" rx="0" ry="0" width="502" height="37" />
</clipPath>
<path style="stroke: none; stroke-width: 1; stroke-dasharray: none; stroke-linecap: butt; stroke-dashoffset: 0; stroke-linejoin: miter; stroke-miterlimit: 4; fill: rgb(0,0,0); fill-rule: nonzero; opacity: 1;" vector-effect="non-scaling-stroke"  transform=" translate(-9.5, 8.1)" d="M 18.03125 -8.046875 C 18.03125 -7.984375 18 -7.5625 17.9375 -6.78125 L 5.6875 -6.78125 C 5.90625 -5.769531 6.425781 -4.972656 7.25 -4.390625 C 8.070312 -3.804688 9.097656 -3.515625 10.328125 -3.515625 C 11.171875 -3.515625 11.914062 -3.640625 12.5625 -3.890625 C 13.21875 -4.148438 13.828125 -4.550781 14.390625 -5.09375 L 16.890625 -2.375 C 15.367188 -0.632812 13.140625 0.234375 10.203125 0.234375 C 8.378906 0.234375 6.765625 -0.117188 5.359375 -0.828125 C 3.953125 -1.535156 2.867188 -2.519531 2.109375 -3.78125 C 1.347656 -5.050781 0.96875 -6.488281 0.96875 -8.09375 C 0.96875 -9.6875 1.34375 -11.117188 2.09375 -12.390625 C 2.84375 -13.660156 3.875 -14.648438 5.1875 -15.359375 C 6.507812 -16.078125 7.984375 -16.4375 9.609375 -16.4375 C 11.191406 -16.4375 12.625 -16.09375 13.90625 -15.40625 C 15.195312 -14.726562 16.207031 -13.75 16.9375 -12.46875 C 17.664062 -11.195312 18.03125 -9.722656 18.03125 -8.046875 Z M 9.640625 -12.890625 C 8.578125 -12.890625 7.679688 -12.585938 6.953125 -11.984375 C 6.234375 -11.378906 5.789062 -10.554688 5.625 -9.515625 L 13.609375 -9.515625 C 13.453125 -10.535156 13.007812 -11.351562 12.28125 -11.96875 C 11.5625 -12.582031 10.679688 -12.890625 9.640625 -12.890625 Z M 9.640625 -12.890625" stroke-linecap="round" />
</g>
<g transform="matrix(1.23 0 0 1.23 660.42 671.38)" clip-path="url(#CLIPPATH_59)"  >
<clipPath id="CLIPPATH_59" >
	<rect transform="matrix(1 0 0 1 76.06 -0.99)" x="-251" y="-18.5" rx="0" ry="0" width="502" height="37" />
</clipPath>
<path style="stroke: none; stroke-width: 1; stroke-dasharray: none; stroke-linecap: butt; stroke-dashoffset: 0; stroke-linejoin: miter; stroke-miterlimit: 4; fill: rgb(0,0,0); fill-rule: nonzero; opacity: 1;" vector-effect="non-scaling-stroke"  transform=" translate(-7.2, 8.22)" d="M 6.65625 -14.0625 C 7.21875 -14.84375 7.972656 -15.429688 8.921875 -15.828125 C 9.878906 -16.234375 10.976562 -16.4375 12.21875 -16.4375 L 12.21875 -12.109375 C 11.695312 -12.148438 11.347656 -12.171875 11.171875 -12.171875 C 9.828125 -12.171875 8.769531 -11.789062 8 -11.03125 C 7.238281 -10.28125 6.859375 -9.148438 6.859375 -7.640625 L 6.859375 0 L 2.171875 0 L 2.171875 -16.203125 L 6.65625 -16.203125 Z M 6.65625 -14.0625" stroke-linecap="round" />
</g>
<g transform="matrix(1.23 0 0 1.23 675.16 681.56)" clip-path="url(#CLIPPATH_60)"  >
<clipPath id="CLIPPATH_60" >
	<rect transform="matrix(1 0 0 1 64.14 -9.21)" x="-251" y="-18.5" rx="0" ry="0" width="502" height="37" />
</clipPath>
<path style="stroke: none; stroke-width: 1; stroke-dasharray: none; stroke-linecap: butt; stroke-dashoffset: 0; stroke-linejoin: miter; stroke-miterlimit: 4; fill: rgb(0,0,0); fill-rule: nonzero; opacity: 1;" vector-effect="non-scaling-stroke"  transform=" translate(0, 0)" d="" stroke-linecap="round" />
</g>
<g transform="matrix(1.23 0 0 1.23 707.46 668.5)" clip-path="url(#CLIPPATH_61)"  >
<clipPath id="CLIPPATH_61" >
	<rect transform="matrix(1 0 0 1 37.93 1.33)" x="-251" y="-18.5" rx="0" ry="0" width="502" height="37" />
</clipPath>
<path style="stroke: none; stroke-width: 1; stroke-dasharray: none; stroke-linecap: butt; stroke-dashoffset: 0; stroke-linejoin: miter; stroke-miterlimit: 4; fill: rgb(0,0,0); fill-rule: nonzero; opacity: 1;" vector-effect="non-scaling-stroke"  transform=" translate(-11.55, 10.54)" d="M 16.375 -4.515625 L 6.59375 -4.515625 L 4.734375 0 L -0.265625 0 L 9.125 -21.078125 L 13.9375 -21.078125 L 23.359375 0 L 18.25 0 Z M 14.84375 -8.21875 L 11.5 -16.296875 L 8.15625 -8.21875 Z M 14.84375 -8.21875" stroke-linecap="round" />
</g>
<g transform="matrix(1.23 0 0 1.23 738.88 671.52)" clip-path="url(#CLIPPATH_62)"  >
<clipPath id="CLIPPATH_62" >
	<rect transform="matrix(1 0 0 1 12.49 -1.11)" x="-251" y="-18.5" rx="0" ry="0" width="502" height="37" />
</clipPath>
<path style="stroke: none; stroke-width: 1; stroke-dasharray: none; stroke-linecap: butt; stroke-dashoffset: 0; stroke-linejoin: miter; stroke-miterlimit: 4; fill: rgb(0,0,0); fill-rule: nonzero; opacity: 1;" vector-effect="non-scaling-stroke"  transform=" translate(-7.94, 8.1)" d="M 7.625 0.234375 C 6.269531 0.234375 4.953125 0.0703125 3.671875 -0.25 C 2.390625 -0.582031 1.367188 -1 0.609375 -1.5 L 2.171875 -4.875 C 2.890625 -4.414062 3.757812 -4.039062 4.78125 -3.75 C 5.8125 -3.457031 6.816406 -3.3125 7.796875 -3.3125 C 9.785156 -3.3125 10.78125 -3.800781 10.78125 -4.78125 C 10.78125 -5.25 10.507812 -5.582031 9.96875 -5.78125 C 9.425781 -5.976562 8.59375 -6.148438 7.46875 -6.296875 C 6.144531 -6.492188 5.050781 -6.722656 4.1875 -6.984375 C 3.320312 -7.242188 2.570312 -7.703125 1.9375 -8.359375 C 1.3125 -9.023438 1 -9.972656 1 -11.203125 C 1 -12.222656 1.289062 -13.128906 1.875 -13.921875 C 2.46875 -14.710938 3.332031 -15.328125 4.46875 -15.765625 C 5.601562 -16.210938 6.941406 -16.4375 8.484375 -16.4375 C 9.628906 -16.4375 10.769531 -16.3125 11.90625 -16.0625 C 13.039062 -15.8125 13.976562 -15.46875 14.71875 -15.03125 L 13.15625 -11.6875 C 11.726562 -12.488281 10.171875 -12.890625 8.484375 -12.890625 C 7.484375 -12.890625 6.734375 -12.75 6.234375 -12.46875 C 5.734375 -12.1875 5.484375 -11.820312 5.484375 -11.375 C 5.484375 -10.875 5.753906 -10.523438 6.296875 -10.328125 C 6.835938 -10.128906 7.695312 -9.9375 8.875 -9.75 C 10.207031 -9.53125 11.296875 -9.296875 12.140625 -9.046875 C 12.984375 -8.796875 13.710938 -8.335938 14.328125 -7.671875 C 14.953125 -7.015625 15.265625 -6.09375 15.265625 -4.90625 C 15.265625 -3.90625 14.960938 -3.007812 14.359375 -2.21875 C 13.753906 -1.4375 12.875 -0.832031 11.71875 -0.40625 C 10.570312 0.0195312 9.207031 0.234375 7.625 0.234375 Z M 7.625 0.234375" stroke-linecap="round" />
</g>
<g transform="matrix(1.23 0 0 1.23 762 666.88)" clip-path="url(#CLIPPATH_63)"  >
<clipPath id="CLIPPATH_63" >
	<rect transform="matrix(1 0 0 1 -6.21 2.64)" x="-251" y="-18.5" rx="0" ry="0" width="502" height="37" />
</clipPath>
<path style="stroke: none; stroke-width: 1; stroke-dasharray: none; stroke-linecap: butt; stroke-dashoffset: 0; stroke-linejoin: miter; stroke-miterlimit: 4; fill: rgb(0,0,0); fill-rule: nonzero; opacity: 1;" vector-effect="non-scaling-stroke"  transform=" translate(-4.52, 11.85)" d="M 2.171875 -16.203125 L 6.859375 -16.203125 L 6.859375 0 L 2.171875 0 Z M 4.515625 -18.453125 C 3.648438 -18.453125 2.945312 -18.703125 2.40625 -19.203125 C 1.863281 -19.710938 1.59375 -20.335938 1.59375 -21.078125 C 1.59375 -21.816406 1.863281 -22.4375 2.40625 -22.9375 C 2.945312 -23.445312 3.648438 -23.703125 4.515625 -23.703125 C 5.378906 -23.703125 6.082031 -23.457031 6.625 -22.96875 C 7.164062 -22.488281 7.4375 -21.890625 7.4375 -21.171875 C 7.4375 -20.390625 7.164062 -19.738281 6.625 -19.21875 C 6.082031 -18.707031 5.378906 -18.453125 4.515625 -18.453125 Z M 4.515625 -18.453125" stroke-linecap="round" />
</g>
<g transform="matrix(1.23 0 0 1.23 786.05 671.52)" clip-path="url(#CLIPPATH_64)"  >
<clipPath id="CLIPPATH_64" >
	<rect transform="matrix(1 0 0 1 -25.7 -1.11)" x="-251" y="-18.5" rx="0" ry="0" width="502" height="37" />
</clipPath>
<path style="stroke: none; stroke-width: 1; stroke-dasharray: none; stroke-linecap: butt; stroke-dashoffset: 0; stroke-linejoin: miter; stroke-miterlimit: 4; fill: rgb(0,0,0); fill-rule: nonzero; opacity: 1;" vector-effect="non-scaling-stroke"  transform=" translate(-8.8, 8.1)" d="M 8.703125 -16.4375 C 11.210938 -16.4375 13.140625 -15.835938 14.484375 -14.640625 C 15.828125 -13.453125 16.5 -11.65625 16.5 -9.25 L 16.5 0 L 12.109375 0 L 12.109375 -2.015625 C 11.222656 -0.515625 9.578125 0.234375 7.171875 0.234375 C 5.921875 0.234375 4.835938 0.0234375 3.921875 -0.390625 C 3.015625 -0.816406 2.316406 -1.398438 1.828125 -2.140625 C 1.347656 -2.878906 1.109375 -3.722656 1.109375 -4.671875 C 1.109375 -6.171875 1.675781 -7.351562 2.8125 -8.21875 C 3.945312 -9.082031 5.695312 -9.515625 8.0625 -9.515625 L 11.796875 -9.515625 C 11.796875 -10.535156 11.484375 -11.320312 10.859375 -11.875 C 10.242188 -12.425781 9.3125 -12.703125 8.0625 -12.703125 C 7.207031 -12.703125 6.363281 -12.566406 5.53125 -12.296875 C 4.695312 -12.023438 3.988281 -11.660156 3.40625 -11.203125 L 1.71875 -14.484375 C 2.601562 -15.109375 3.660156 -15.585938 4.890625 -15.921875 C 6.128906 -16.265625 7.398438 -16.4375 8.703125 -16.4375 Z M 8.34375 -2.921875 C 9.144531 -2.921875 9.851562 -3.101562 10.46875 -3.46875 C 11.09375 -3.84375 11.535156 -4.394531 11.796875 -5.125 L 11.796875 -6.78125 L 8.578125 -6.78125 C 6.648438 -6.78125 5.6875 -6.144531 5.6875 -4.875 C 5.6875 -4.269531 5.921875 -3.789062 6.390625 -3.4375 C 6.867188 -3.09375 7.519531 -2.921875 8.34375 -2.921875 Z M 8.34375 -2.921875" stroke-linecap="round" />
</g>
<g transform="matrix(1.23 0 0 1.23 805.72 681.56)" clip-path="url(#CLIPPATH_65)"  >
<clipPath id="CLIPPATH_65" >
	<rect transform="matrix(1 0 0 1 -41.61 -9.21)" x="-251" y="-18.5" rx="0" ry="0" width="502" height="37" />
</clipPath>
<path style="stroke: none; stroke-width: 1; stroke-dasharray: none; stroke-linecap: butt; stroke-dashoffset: 0; stroke-linejoin: miter; stroke-miterlimit: 4; fill: rgb(0,0,0); fill-rule: nonzero; opacity: 1;" vector-effect="non-scaling-stroke"  transform=" translate(0, 0)" d="" stroke-linecap="round" />
</g>
<g transform="matrix(1.23 0 0 1.23 834.87 675.26)" clip-path="url(#CLIPPATH_66)"  >
<clipPath id="CLIPPATH_66" >
	<rect transform="matrix(1 0 0 1 -65.25 -4.15)" x="-251" y="-18.5" rx="0" ry="0" width="502" height="37" />
</clipPath>
<path style="stroke: none; stroke-width: 1; stroke-dasharray: none; stroke-linecap: butt; stroke-dashoffset: 0; stroke-linejoin: miter; stroke-miterlimit: 4; fill: rgb(0,0,0); fill-rule: nonzero; opacity: 1;" vector-effect="non-scaling-stroke"  transform=" translate(-8.98, 5.06)" d="M 18.25 -16.203125 L 10.9375 1 C 10.1875 2.863281 9.265625 4.175781 8.171875 4.9375 C 7.078125 5.695312 5.757812 6.078125 4.21875 6.078125 C 3.375 6.078125 2.539062 5.945312 1.71875 5.6875 C 0.894531 5.425781 0.222656 5.066406 -0.296875 4.609375 L 1.421875 1.265625 C 1.773438 1.585938 2.1875 1.835938 2.65625 2.015625 C 3.132812 2.191406 3.601562 2.28125 4.0625 2.28125 C 4.707031 2.28125 5.226562 2.125 5.625 1.8125 C 6.03125 1.507812 6.394531 0.992188 6.71875 0.265625 L 6.78125 0.125 L -0.234375 -16.203125 L 4.609375 -16.203125 L 9.15625 -5.203125 L 13.734375 -16.203125 Z M 18.25 -16.203125" stroke-linecap="round" />
</g>
<g transform="matrix(1.23 0 0 1.23 865.22 671.52)" clip-path="url(#CLIPPATH_67)"  >
<clipPath id="CLIPPATH_67" >
	<rect transform="matrix(1 0 0 1 -89.83 -1.11)" x="-251" y="-18.5" rx="0" ry="0" width="502" height="37" />
</clipPath>
<path style="stroke: none; stroke-width: 1; stroke-dasharray: none; stroke-linecap: butt; stroke-dashoffset: 0; stroke-linejoin: miter; stroke-miterlimit: 4; fill: rgb(0,0,0); fill-rule: nonzero; opacity: 1;" vector-effect="non-scaling-stroke"  transform=" translate(-9.87, 8.1)" d="M 9.875 0.234375 C 8.164062 0.234375 6.632812 -0.117188 5.28125 -0.828125 C 3.925781 -1.535156 2.867188 -2.519531 2.109375 -3.78125 C 1.347656 -5.050781 0.96875 -6.488281 0.96875 -8.09375 C 0.96875 -9.707031 1.347656 -11.144531 2.109375 -12.40625 C 2.867188 -13.664062 3.925781 -14.648438 5.28125 -15.359375 C 6.632812 -16.078125 8.164062 -16.4375 9.875 -16.4375 C 11.582031 -16.4375 13.109375 -16.078125 14.453125 -15.359375 C 15.796875 -14.648438 16.847656 -13.664062 17.609375 -12.40625 C 18.378906 -11.144531 18.765625 -9.707031 18.765625 -8.09375 C 18.765625 -6.488281 18.378906 -5.050781 17.609375 -3.78125 C 16.847656 -2.519531 15.796875 -1.535156 14.453125 -0.828125 C 13.109375 -0.117188 11.582031 0.234375 9.875 0.234375 Z M 9.875 -3.609375 C 11.082031 -3.609375 12.070312 -4.015625 12.84375 -4.828125 C 13.613281 -5.640625 14 -6.726562 14 -8.09375 C 14 -9.457031 13.613281 -10.546875 12.84375 -11.359375 C 12.070312 -12.171875 11.082031 -12.578125 9.875 -12.578125 C 8.664062 -12.578125 7.671875 -12.171875 6.890625 -11.359375 C 6.109375 -10.546875 5.71875 -9.457031 5.71875 -8.09375 C 5.71875 -6.726562 6.109375 -5.640625 6.890625 -4.828125 C 7.671875 -4.015625 8.664062 -3.609375 9.875 -3.609375 Z M 9.875 -3.609375" stroke-linecap="round" />
</g>
<g transform="matrix(1.23 0 0 1.23 897.65 671.67)" clip-path="url(#CLIPPATH_68)"  >
<clipPath id="CLIPPATH_68" >
	<rect transform="matrix(1 0 0 1 -116.11 -1.23)" x="-251" y="-18.5" rx="0" ry="0" width="502" height="37" />
</clipPath>
<path style="stroke: none; stroke-width: 1; stroke-dasharray: none; stroke-linecap: butt; stroke-dashoffset: 0; stroke-linejoin: miter; stroke-miterlimit: 4; fill: rgb(0,0,0); fill-rule: nonzero; opacity: 1;" vector-effect="non-scaling-stroke"  transform=" translate(-10.28, 7.98)" d="M 18.484375 -16.203125 L 18.484375 0 L 14.03125 0 L 14.03125 -1.921875 C 13.40625 -1.222656 12.660156 -0.6875 11.796875 -0.3125 C 10.941406 0.0507812 10.007812 0.234375 9 0.234375 C 6.875 0.234375 5.1875 -0.375 3.9375 -1.59375 C 2.695312 -2.820312 2.078125 -4.640625 2.078125 -7.046875 L 2.078125 -16.203125 L 6.78125 -16.203125 L 6.78125 -7.734375 C 6.78125 -5.128906 7.875 -3.828125 10.0625 -3.828125 C 11.1875 -3.828125 12.085938 -4.191406 12.765625 -4.921875 C 13.453125 -5.648438 13.796875 -6.738281 13.796875 -8.1875 L 13.796875 -16.203125 Z M 18.484375 -16.203125" stroke-linecap="round" />
</g>
<g transform="matrix(1.23 0 0 1.23 926.97 671.38)" clip-path="url(#CLIPPATH_69)"  >
<clipPath id="CLIPPATH_69" >
	<rect transform="matrix(1 0 0 1 -139.84 -0.99)" x="-251" y="-18.5" rx="0" ry="0" width="502" height="37" />
</clipPath>
<path style="stroke: none; stroke-width: 1; stroke-dasharray: none; stroke-linecap: butt; stroke-dashoffset: 0; stroke-linejoin: miter; stroke-miterlimit: 4; fill: rgb(0,0,0); fill-rule: nonzero; opacity: 1;" vector-effect="non-scaling-stroke"  transform=" translate(-7.2, 8.22)" d="M 6.65625 -14.0625 C 7.21875 -14.84375 7.972656 -15.429688 8.921875 -15.828125 C 9.878906 -16.234375 10.976562 -16.4375 12.21875 -16.4375 L 12.21875 -12.109375 C 11.695312 -12.148438 11.347656 -12.171875 11.171875 -12.171875 C 9.828125 -12.171875 8.769531 -11.789062 8 -11.03125 C 7.238281 -10.28125 6.859375 -9.148438 6.859375 -7.640625 L 6.859375 0 L 2.171875 0 L 2.171875 -16.203125 L 6.65625 -16.203125 Z M 6.65625 -14.0625" stroke-linecap="round" />
</g>
<g transform="matrix(1.23 0 0 1.23 941.71 681.56)" clip-path="url(#CLIPPATH_70)"  >
<clipPath id="CLIPPATH_70" >
	<rect transform="matrix(1 0 0 1 -151.76 -9.21)" x="-251" y="-18.5" rx="0" ry="0" width="502" height="37" />
</clipPath>
<path style="stroke: none; stroke-width: 1; stroke-dasharray: none; stroke-linecap: butt; stroke-dashoffset: 0; stroke-linejoin: miter; stroke-miterlimit: 4; fill: rgb(0,0,0); fill-rule: nonzero; opacity: 1;" vector-effect="non-scaling-stroke"  transform=" translate(0, 0)" d="" stroke-linecap="round" />
</g>
<g transform="matrix(1.23 0 0 1.23 977.17 671.52)" clip-path="url(#CLIPPATH_71)"  >
<clipPath id="CLIPPATH_71" >
	<rect transform="matrix(1 0 0 1 -180.54 -1.11)" x="-251" y="-18.5" rx="0" ry="0" width="502" height="37" />
</clipPath>
<path style="stroke: none; stroke-width: 1; stroke-dasharray: none; stroke-linecap: butt; stroke-dashoffset: 0; stroke-linejoin: miter; stroke-miterlimit: 4; fill: rgb(0,0,0); fill-rule: nonzero; opacity: 1;" vector-effect="non-scaling-stroke"  transform=" translate(-14.11, 8.1)" d="M 28.1875 -16.203125 L 22.3125 0 L 17.796875 0 L 14.15625 -10.0625 L 10.390625 0 L 5.875 0 L 0.03125 -16.203125 L 4.453125 -16.203125 L 8.28125 -5.234375 L 12.25 -16.203125 L 16.234375 -16.203125 L 20.078125 -5.234375 L 24.03125 -16.203125 Z M 28.1875 -16.203125" stroke-linecap="round" />
</g>
<g transform="matrix(1.23 0 0 1.23 1012.38 671.52)" clip-path="url(#CLIPPATH_72)"  >
<clipPath id="CLIPPATH_72" >
	<rect transform="matrix(1 0 0 1 -209.04 -1.11)" x="-251" y="-18.5" rx="0" ry="0" width="502" height="37" />
</clipPath>
<path style="stroke: none; stroke-width: 1; stroke-dasharray: none; stroke-linecap: butt; stroke-dashoffset: 0; stroke-linejoin: miter; stroke-miterlimit: 4; fill: rgb(0,0,0); fill-rule: nonzero; opacity: 1;" vector-effect="non-scaling-stroke"  transform=" translate(-8.8, 8.1)" d="M 8.703125 -16.4375 C 11.210938 -16.4375 13.140625 -15.835938 14.484375 -14.640625 C 15.828125 -13.453125 16.5 -11.65625 16.5 -9.25 L 16.5 0 L 12.109375 0 L 12.109375 -2.015625 C 11.222656 -0.515625 9.578125 0.234375 7.171875 0.234375 C 5.921875 0.234375 4.835938 0.0234375 3.921875 -0.390625 C 3.015625 -0.816406 2.316406 -1.398438 1.828125 -2.140625 C 1.347656 -2.878906 1.109375 -3.722656 1.109375 -4.671875 C 1.109375 -6.171875 1.675781 -7.351562 2.8125 -8.21875 C 3.945312 -9.082031 5.695312 -9.515625 8.0625 -9.515625 L 11.796875 -9.515625 C 11.796875 -10.535156 11.484375 -11.320312 10.859375 -11.875 C 10.242188 -12.425781 9.3125 -12.703125 8.0625 -12.703125 C 7.207031 -12.703125 6.363281 -12.566406 5.53125 -12.296875 C 4.695312 -12.023438 3.988281 -11.660156 3.40625 -11.203125 L 1.71875 -14.484375 C 2.601562 -15.109375 3.660156 -15.585938 4.890625 -15.921875 C 6.128906 -16.265625 7.398438 -16.4375 8.703125 -16.4375 Z M 8.34375 -2.921875 C 9.144531 -2.921875 9.851562 -3.101562 10.46875 -3.46875 C 11.09375 -3.84375 11.535156 -4.394531 11.796875 -5.125 L 11.796875 -6.78125 L 8.578125 -6.78125 C 6.648438 -6.78125 5.6875 -6.144531 5.6875 -4.875 C 5.6875 -4.269531 5.921875 -3.789062 6.390625 -3.4375 C 6.867188 -3.09375 7.519531 -2.921875 8.34375 -2.921875 Z M 8.34375 -2.921875" stroke-linecap="round" />
</g>
<g transform="matrix(1.23 0 0 1.23 1042.73 675.26)" clip-path="url(#CLIPPATH_73)"  >
<clipPath id="CLIPPATH_73" >
	<rect transform="matrix(1 0 0 1 -233.62 -4.15)" x="-251" y="-18.5" rx="0" ry="0" width="502" height="37" />
</clipPath>
<path style="stroke: none; stroke-width: 1; stroke-dasharray: none; stroke-linecap: butt; stroke-dashoffset: 0; stroke-linejoin: miter; stroke-miterlimit: 4; fill: rgb(0,0,0); fill-rule: nonzero; opacity: 1;" vector-effect="non-scaling-stroke"  transform=" translate(-8.98, 5.06)" d="M 18.25 -16.203125 L 10.9375 1 C 10.1875 2.863281 9.265625 4.175781 8.171875 4.9375 C 7.078125 5.695312 5.757812 6.078125 4.21875 6.078125 C 3.375 6.078125 2.539062 5.945312 1.71875 5.6875 C 0.894531 5.425781 0.222656 5.066406 -0.296875 4.609375 L 1.421875 1.265625 C 1.773438 1.585938 2.1875 1.835938 2.65625 2.015625 C 3.132812 2.191406 3.601562 2.28125 4.0625 2.28125 C 4.707031 2.28125 5.226562 2.125 5.625 1.8125 C 6.03125 1.507812 6.394531 0.992188 6.71875 0.265625 L 6.78125 0.125 L -0.234375 -16.203125 L 4.609375 -16.203125 L 9.15625 -5.203125 L 13.734375 -16.203125 Z M 18.25 -16.203125" stroke-linecap="round" />
</g>
<g transform="matrix(1.23 0 0 1.23 397.83 463.52)"  >
<path style="stroke: none; stroke-width: 1; stroke-dasharray: none; stroke-linecap: butt; stroke-dashoffset: 0; stroke-linejoin: miter; stroke-miterlimit: 4; fill: rgb(121,218,90); fill-rule: nonzero; opacity: 1;" vector-effect="non-scaling-stroke"  transform=" translate(-276.08, -398.46)" d="M 226.414062 299.890625 C 228.632812 299.890625 230.851562 299.878906 233.074219 299.859375 C 276.351562 299.507812 315.617188 310.992188 355.121094 328.121094 C 357.132812 328.992188 359.140625 329.851562 361.15625 330.710938 C 372.40625 335.503906 383.503906 340.554688 394.472656 345.96875 L 396.664062 347.042969 C 405.035156 351.160156 413.316406 355.398438 421.480469 359.917969 C 425.4375 362.101562 429.4375 364.15625 433.496094 366.148438 C 439.078125 368.890625 444.488281 371.882812 449.886719 374.972656 C 454.398438 377.546875 458.9375 380.070312 463.507812 382.53125 C 468.023438 384.980469 472.480469 387.488281 476.859375 390.167969 C 480.363281 392.304688 483.929688 394.328125 487.503906 396.351562 C 494.78125 400.476562 501.886719 404.867188 508.96875 409.324219 L 507.625 409.996094 C 506.070312 409.429688 506.070312 409.429688 504.105469 408.507812 C 503.378906 408.171875 502.648438 407.835938 501.898438 407.488281 L 499.5 406.375 C 470.625 393.238281 440.410156 386.414062 408.660156 386.238281 L 406.304688 386.222656 C 400.144531 386.246094 394.316406 386.714844 388.835938 389.738281 C 387.648438 390.472656 387.648438 390.472656 386.390625 391.671875 C 385.609375 393.210938 385.609375 393.210938 385.382812 395.296875 C 385.929688 399.476562 387.9375 402.320312 390.351562 405.707031 C 407.828125 428.316406 438.320312 441.449219 463.84375 452.457031 L 463.84375 453.132812 C 458.113281 453.394531 453.183594 452.773438 447.679688 451.195312 L 445.410156 450.558594 C 425.832031 444.929688 406.960938 437.589844 390.433594 425.5 L 389.214844 424.621094 C 379.429688 417.523438 370.699219 409.027344 362.820312 399.886719 C 357.167969 393.378906 351.222656 386.9375 343.160156 383.460938 C 338.300781 382.664062 333.367188 382.425781 328.597656 383.753906 C 318.273438 390.03125 311.195312 399.679688 304.222656 409.324219 L 302.054688 412.304688 C 300.207031 414.847656 298.371094 417.402344 296.542969 419.960938 C 295.511719 421.394531 294.472656 422.824219 293.425781 424.25 C 289.125 430.175781 285.28125 436.285156 281.628906 442.636719 C 279.664062 446.050781 277.617188 449.292969 275.261719 452.457031 C 274.589844 450.4375 274.589844 450.4375 275 448.324219 C 275.246094 447.425781 275.503906 446.527344 275.769531 445.632812 L 276.210938 444.140625 C 278.589844 436.542969 282.019531 429.335938 285.367188 422.128906 L 286.089844 420.5625 C 291.882812 408.144531 299.035156 396.429688 307.59375 385.734375 L 309.230469 383.664062 C 312.109375 380.082031 315.113281 376.628906 318.214844 373.238281 C 319.195312 372.152344 320.160156 371.058594 321.113281 369.945312 C 325.023438 365.410156 329.375 361.609375 333.964844 357.789062 C 335.648438 356.386719 337.316406 354.964844 338.988281 353.546875 C 340.644531 352.144531 342.300781 350.738281 343.960938 349.339844 C 343.976562 348.066406 343.976562 348.066406 343.289062 346.644531 C 341.808594 345.644531 340.265625 344.761719 338.65625 343.988281 L 337.199219 343.28125 C 331.570312 340.65625 325.769531 339.171875 319.714844 337.882812 L 317.898438 337.480469 C 307.894531 335.328125 298.273438 334.832031 288.058594 335.1875 C 288.773438 337.023438 289.5 338.722656 290.460938 340.453125 C 292.785156 345.613281 292.210938 351.675781 292.214844 357.226562 L 292.222656 359.910156 C 292.226562 361.78125 292.226562 363.648438 292.226562 365.519531 C 292.226562 367.890625 292.234375 370.265625 292.246094 372.636719 C 292.257812 374.929688 292.253906 377.21875 292.257812 379.511719 L 292.269531 382.058594 C 292.238281 394.503906 292.238281 394.503906 289.910156 398.71875 C 288.605469 400.507812 287.242188 401.613281 285.3125 402.6875 C 283.125 403.578125 281.371094 404.011719 279.007812 403.746094 C 277.984375 403.515625 276.972656 403.25 275.964844 402.949219 C 274.394531 402.46875 274.394531 402.46875 271.894531 402.585938 C 269.617188 413.203125 268.296875 423.851562 267.175781 434.648438 C 266.6875 439.347656 266.171875 444.042969 265.65625 448.738281 L 265.507812 450.128906 C 264.667969 457.777344 263.742188 465.402344 262.636719 473.015625 L 262.441406 474.390625 C 261.207031 483.105469 261.207031 483.105469 259.097656 486.832031 C 256.71875 489.253906 253.488281 489.988281 250.316406 490.929688 C 231.539062 496.054688 211.324219 495.753906 192 496.308594 L 190.433594 496.355469 C 171.152344 496.910156 151.875 497.070312 132.585938 497.066406 C 130.53125 497.066406 128.476562 497.070312 126.421875 497.070312 C 113.921875 497.070312 101.421875 497.042969 88.925781 496.71875 C 87.550781 496.683594 86.171875 496.648438 84.796875 496.621094 C 74.761719 496.316406 65.367188 495.480469 56.296875 490.816406 C 52.695312 488.5625 50.382812 485.074219 48.292969 481.441406 C 47.410156 479.453125 46.796875 477.480469 46.269531 475.375 L 45.878906 473.90625 C 42.03125 458.304688 43.386719 440.757812 43.550781 424.753906 C 43.570312 423.109375 43.578125 421.464844 43.582031 419.824219 C 43.636719 402.269531 46.527344 384.324219 51.660156 367.535156 L 52.308594 365.347656 C 61.597656 334.054688 61.597656 334.054688 67.523438 328.394531 C 79.648438 318.839844 97.117188 314.726562 112.105469 312.398438 L 115.179688 311.902344 C 118.058594 311.441406 120.9375 310.992188 123.820312 310.546875 C 125.851562 310.230469 127.882812 309.914062 129.910156 309.597656 C 145.292969 307.195312 160.683594 304.867188 176.132812 302.917969 L 177.691406 302.71875 C 181.25 302.273438 184.8125 301.863281 188.382812 301.488281 L 190.078125 301.300781 C 202.179688 299.992188 214.257812 299.886719 226.414062 299.890625 M 145.191406 323.644531 L 143.648438 323.839844 C 134.226562 325.082031 125.105469 327.238281 115.9375 329.710938 L 114.054688 330.214844 C 107.25 332.074219 100.496094 334.109375 93.800781 336.332031 L 92.035156 336.914062 C 81.71875 340.394531 71.945312 346.054688 64.457031 354.054688 C 62.242188 356.867188 60.289062 359.792969 58.394531 362.820312 L 56.960938 365.050781 C 53.226562 371.175781 50.96875 377.519531 48.964844 384.386719 L 48.414062 386.140625 C 47.070312 390.609375 46.621094 394.683594 46.691406 399.339844 L 46.710938 401.382812 C 46.921875 411.546875 48.960938 421.652344 53.976562 430.601562 C 56.84375 434.714844 60.769531 437.578125 65.214844 439.820312 C 71.863281 442.511719 79.523438 442.570312 86.613281 442.761719 L 89.113281 442.835938 C 99.625 443.125 110.140625 443.148438 120.65625 443.148438 C 122.972656 443.148438 125.292969 443.152344 127.613281 443.160156 C 147.609375 443.238281 167.761719 443.132812 187.582031 440.15625 L 189.082031 439.941406 C 205.40625 437.554688 221.570312 433.414062 234.824219 423.113281 L 236.875 421.457031 C 237.488281 420.964844 238.101562 420.472656 238.734375 419.964844 C 246.546875 413.332031 252.210938 404.492188 255.921875 394.980469 C 256.628906 392.8125 257.21875 390.648438 257.753906 388.429688 L 258.335938 386.054688 C 261.230469 372.6875 261.972656 357.234375 257.867188 344.101562 C 256.175781 339.425781 254.140625 334.503906 250.34375 331.140625 C 242.742188 325.390625 234.097656 322.425781 224.703125 321.21875 C 217.363281 320.53125 209.921875 320.769531 202.554688 320.816406 C 200.632812 320.824219 198.707031 320.820312 196.785156 320.816406 C 179.558594 320.792969 162.292969 321.429688 145.191406 323.644531" stroke-linecap="round" />
</g>
<g transform="matrix(1.23 0 0 1.23 239.98 614.99)" clip-path="url(#CLIPPATH_74)"  >
<clipPath id="CLIPPATH_74" >
	<path transform="matrix(1 0 0 1 0.32 0.16) translate(-148.09, -521)" d="M 39.171875 506 L 257 506 L 257 536 L 39.171875 536 Z M 39.171875 506" stroke-linecap="round" />
</clipPath>
<path style="stroke: none; stroke-width: 1; stroke-dasharray: none; stroke-linecap: butt; stroke-dashoffset: 0; stroke-linejoin: miter; stroke-miterlimit: 4; fill: rgb(122,218,91); fill-rule: nonzero; opacity: 1;" vector-effect="non-scaling-stroke"  transform=" translate(-147.77, -520.84)" d="M 250.132812 507.136719 C 252.542969 509.09375 254.472656 511.210938 255.816406 514.03125 C 256.824219 517.074219 256.699219 520.058594 256.40625 523.226562 C 255.511719 525.910156 254.53125 527.125 252.53125 529.125 C 247.636719 532.515625 241.808594 532.488281 236.03125 533 L 234.621094 533.128906 C 220.277344 534.425781 205.859375 535.4375 191.453125 535.527344 L 189.558594 535.546875 L 187.835938 535.539062 L 186.367188 535.53125 C 184.796875 535.332031 183.691406 534.785156 182.320312 534.011719 C 182.011719 529.683594 183.113281 526.199219 184.507812 522.132812 L 185.121094 520.234375 C 185.949219 517.769531 186.890625 515.4375 188.035156 513.101562 C 190.386719 511.25 192.585938 511.175781 195.503906 510.726562 C 199.304688 510.222656 203.113281 509.886719 206.929688 509.574219 L 209.480469 509.359375 C 211.695312 509.171875 213.90625 508.988281 216.121094 508.804688 C 219.238281 508.546875 222.359375 508.285156 225.476562 508.019531 C 227.128906 507.882812 228.785156 507.742188 230.4375 507.605469 C 233.722656 507.332031 237.003906 507.050781 240.277344 506.675781 C 247.179688 505.898438 247.179688 505.898438 250.132812 507.136719 M 51.542969 507.5625 L 53.144531 507.574219 C 59.367188 507.667969 65.554688 508.214844 71.75 508.804688 C 73.742188 508.992188 75.738281 509.167969 77.730469 509.34375 C 79.015625 509.460938 80.296875 509.582031 81.578125 509.699219 L 83.363281 509.859375 C 86.425781 510.15625 89.210938 510.542969 92.070312 511.769531 C 95.015625 516.355469 96.078125 523.28125 96.785156 528.617188 C 96.582031 530.5 96.582031 530.5 96.109375 531.988281 L 94.765625 533.335938 C 93.007812 533.46875 91.25 533.523438 89.492188 533.496094 L 87.863281 533.484375 C 82.03125 533.398438 76.246094 532.886719 70.445312 532.296875 C 68.65625 532.113281 66.871094 531.945312 65.078125 531.777344 C 48.378906 530.152344 48.378906 530.152344 44 527.734375 C 42.207031 526.433594 41.164062 525.09375 40.109375 523.152344 C 39.277344 521.085938 38.828125 519.296875 38.929688 517.0625 C 39.40625 514.628906 40.285156 512.796875 41.808594 510.84375 C 44.894531 507.757812 47.277344 507.507812 51.542969 507.5625" stroke-linecap="round" />
</g>
<g transform="matrix(1.23 0 0 1.23 255.46 447.78)"  >
<path style="stroke: none; stroke-width: 1; stroke-dasharray: none; stroke-linecap: butt; stroke-dashoffset: 0; stroke-linejoin: miter; stroke-miterlimit: 4; fill: rgb(121,218,90); fill-rule: nonzero; opacity: 1;" vector-effect="non-scaling-stroke"  transform=" translate(-160.09, -385.43)" d="M 108.234375 363.492188 C 119.460938 363.300781 128.316406 366.558594 138.289062 371.414062 C 139.503906 371.992188 140.722656 372.570312 141.9375 373.148438 C 144.96875 374.585938 147.988281 376.042969 151.003906 377.503906 C 152.570312 378.265625 154.140625 379.023438 155.710938 379.78125 C 159.246094 381.484375 162.777344 383.195312 166.308594 384.914062 C 176.265625 389.757812 186.308594 394.417969 196.433594 398.894531 L 199.148438 400.101562 C 200.886719 400.871094 202.632812 401.636719 204.375 402.398438 L 206.753906 403.449219 L 208.863281 404.375 C 210.464844 405.207031 211.460938 405.945312 212.628906 407.300781 C 197.558594 407.972656 187.605469 404.042969 174.222656 397.464844 C 169.976562 395.378906 165.703125 393.378906 161.398438 391.421875 L 159.40625 390.511719 C 156.699219 389.273438 153.988281 388.042969 151.28125 386.8125 C 142.496094 382.820312 133.789062 378.707031 125.15625 374.402344 C 124.738281 374.195312 124.316406 373.988281 123.886719 373.773438 C 118.324219 371.011719 112.882812 368.035156 107.558594 364.839844 Z M 130.894531 373.578125 L 129.785156 374.277344 C 132.253906 376.335938 134.988281 377.625 137.867188 378.996094 L 139.375 379.765625 C 141.980469 381.039062 144.078125 381.859375 147.003906 381.859375 L 149.316406 381.691406 C 148.761719 379.726562 148.761719 379.726562 147.296875 377.648438 C 143.363281 374.8125 138.988281 373.765625 134.273438 372.972656 C 132.472656 372.808594 132.472656 372.808594 130.894531 373.578125 M 153.359375 382.363281 L 153.359375 385.058594 L 156.726562 385.734375 C 157.125 384.421875 157.125 384.421875 157.398438 383.039062 L 156.726562 382.363281 C 155.605469 382.335938 154.480469 382.335938 153.359375 382.363281" stroke-linecap="round" />
</g>
<g transform="matrix(1.23 0 0 1.23 680.98 474.87)" clip-path="url(#CLIPPATH_75)"  >
<clipPath id="CLIPPATH_75" >
	<path transform="matrix(1 0 0 1 -0.34 -0.3) translate(-504.25, -407)" d="M 498 403 L 510.507812 403 L 510.507812 411 L 498 411 Z M 498 403" stroke-linecap="round" />
</clipPath>
<path style="stroke: none; stroke-width: 1; stroke-dasharray: none; stroke-linecap: butt; stroke-dashoffset: 0; stroke-linejoin: miter; stroke-miterlimit: 4; fill: rgb(145,231,118); fill-rule: nonzero; opacity: 1;" vector-effect="non-scaling-stroke"  transform=" translate(-504.59, -407.3)" d="M 498.867188 403.933594 C 502.777344 404.933594 505.722656 407.027344 508.96875 409.324219 L 507.625 409.996094 C 506.113281 409.386719 504.625 408.730469 503.160156 408.019531 L 500.734375 406.863281 L 498.867188 405.953125 Z M 508.96875 409.996094 L 510.316406 410.671875 Z M 508.96875 409.996094" stroke-linecap="round" />
</g>
</svg>